<?xml version="1.0" encoding="UTF-8" standalone="no"?>
<svg
   xmlns:dc="http://purl.org/dc/elements/1.1/"
   xmlns:cc="http://creativecommons.org/ns#"
   xmlns:rdf="http://www.w3.org/1999/02/22-rdf-syntax-ns#"
   xmlns:svg="http://www.w3.org/2000/svg"
   xmlns="http://www.w3.org/2000/svg"
   xml:space="preserve"
   width="10.558331in"
   height="5.0593853in"
   version="1.0"
   shape-rendering="geometricPrecision"
   text-rendering="geometricPrecision"
   image-rendering="optimizeQuality"
   fill-rule="evenodd"
   clip-rule="evenodd"
   viewBox="0 0 1055834 505938.52"
   id="svg30"><metadata
   id="metadata36"><rdf:RDF><cc:Work
       rdf:about=""><dc:format>image/svg+xml</dc:format><dc:type
         rdf:resource="http://purl.org/dc/dcmitype/StillImage" /></cc:Work></rdf:RDF></metadata><defs
   id="defs34" />
 <g
   id="Layer_x0020_1"
   transform="translate(-56728,-47917.413)">
  <metadata
   id="CorelCorpID_0Corel-Layer" />
  <path
   fill="#262123"
   fill-rule="nonzero"
   d="m 73532,304629 85278,-228482 8135,-21794 h 23055 50846 23085 l 8104,21794 13914,37418 h 19317 55028 l 33169,1 c 1224,-270 2456,-522 3700,-756 8717,-1642 17668,-2463 26849,-2463 17762,0 32763,3789 45001,11365 4043,2502 7741,5217 11093,8142 5443,-3784 11166,-7045 17168,-9778 7142,-3254 14604,-5686 22383,-7297 7829,-1621 15600,-2432 23309,-2432 8280,0 16456,908 24525,2723 699,158 1396,323 2089,495 h 27450 53097 33408 v 2746 c 4681,-1428 9528,-2595 14544,-3501 9083,-1642 18188,-2463 27312,-2463 9028,0 18065,821 27113,2463 3196,579 6303,1252 9323,2018 V 81326 47917 h 33408 61143 33409 v 33409 39078 c 3467,-1232 6985,-2353 10554,-3362 15787,-4463 32279,-6695 49471,-6695 16376,0 31426,1980 45147,5941 14787,4268 27597,10862 38425,19780 11746,9673 20479,21576 26199,35706 5300,13095 7951,27784 7951,44066 v 16878 l 14803,1139 v 30897 51489 27452 c 203,159 405,318 606,477 5027,4001 9418,8362 13172,13080 4011,5041 7276,10501 9795,16381 2220,5179 3894,10804 5022,16874 1087,5846 1630,11581 1630,17202 0,14893 -3037,28662 -9113,41306 -6170,12844 -15152,23772 -26942,32783 -11006,8411 -23734,14644 -38180,18696 -13446,3774 -28162,5660 -44148,5660 -9022,0 -19214,-748 -30577,-2242 -6206,-817 -11278,-1569 -15213,-2255 h -132 c -4963,-866 -9942,-1847 -14937,-2941 -3601,-789 -7721,-1809 -12358,-3059 l -890,379 c -3750,1594 -8024,3190 -12820,4789 -4900,1633 -9353,2957 -13357,3969 -4586,1159 -9506,2076 -14755,2750 -5410,695 -10326,1043 -14747,1043 -3456,0 -7248,-271 -11374,-812 -3843,-504 -7566,-1253 -11166,-2247 -4194,-1156 -8128,-2679 -11798,-4569 -3856,-1985 -7396,-4328 -10618,-7026 -2638,-2208 -5043,-4646 -7216,-7312 h -26577 -56574 c -49001,0 -45171,0 -132097,0 h -36151 l 12658,-33912 13298,-35630 c -12420,2890 -25630,4336 -39628,4336 -22485,0 -42454,-3660 -59904,-10978 -8533,-3578 -16767,-8072 -24698,-13479 -7642,-5211 -14820,-11243 -21533,-18095 l -22675,-23148 5831,-6063 h -9813 -14540 -18868 -7217 -7324 -32716 -7891 -15196 -51096 -24536 l -7306,-23621 -6530,-21110 h -11490 l -6339,20979 -7178,23752 H 171336 104722 56728 Z m 139524,-183459 -8649,23172 22018,134 -8666,-23306 z m 388936,59212 h -438 l 315,304 z m -169645,-1195 370,374 c 199,-526 396,-1041 593,-1545 -670,-235 -1593,-422 -2771,-559 612,560 1215,1137 1808,1730 z m -87381,12633 c 3127,-4221 6571,-8002 10332,-11342 l -321,-96 h -16302 v 21494 c 1827,-3509 3925,-6862 6291,-10056 z m 154240,2520 72,-114 c 95,-168 207,-362 -72,114 z m -56778,-34880 c -313,542 -551,963 -119,285 l 119,-198 z"
   id="path3" />
 </g>
 <g
   id="Layer_x0020_2"
   transform="translate(-56728,-47917.413)">
  <metadata
   id="CorelCorpID_1Corel-Layer" />
  <path
   fill="#ffffff"
   d="M 104722,316243 190000,87762 h 50846 l 84956,228481 h -66292 l -13837,-44730 h -60821 l -13516,44730 z m 820311,3218 c -8367,0 -16198,-1394 -23492,-4183 -7294,-2789 -13569,-6597 -18825,-11424 -5257,-4828 -9386,-10567 -12390,-17217 -3003,-6650 -4505,-13837 -4505,-21561 0,-8581 1823,-16412 5471,-23492 3647,-7079 8688,-13194 15125,-18342 6436,-5149 14105,-9118 23008,-11907 8904,-2789 18719,-4184 29445,-4184 13731,0 25101,2146 34112,6436 v -5148 c 0,-7938 -2306,-13838 -6919,-17700 -4612,-3862 -12067,-5792 -22365,-5792 -9654,0 -18558,1555 -26710,4666 -8153,3111 -16734,7669 -25745,13677 l -17699,-37973 c 22312,-14374 47735,-21561 76268,-21561 27032,0 47842,6007 62430,18021 14588,12014 21883,30035 21883,54063 v 32824 c 0,5793 1072,9815 3218,12068 2145,2253 6007,3593 11585,4022 v 51489 c -5578,1073 -10834,1877 -15768,2413 -4935,537 -9333,805 -13194,805 -10942,0 -19255,-1984 -24940,-5953 -5686,-3969 -9387,-9815 -11103,-17538 l -1287,-6115 c -7509,9654 -16197,17002 -26066,22044 -9868,5041 -20381,7562 -31537,7562 z m 18343,-43765 c 3647,0 7401,-590 11263,-1770 3862,-1180 7294,-2735 10298,-4666 2360,-1717 4291,-3594 5792,-5632 1502,-2038 2253,-4130 2253,-6275 v -12551 c -3647,-1287 -7616,-2359 -11907,-3218 -4290,-858 -8152,-1287 -11584,-1287 -7510,0 -13731,1824 -18666,5471 -4934,3647 -7401,8260 -7401,13838 0,4719 1877,8581 5632,11585 3754,3003 8527,4505 14320,4505 z M 795235,81326 h 61143 v 163476 c 0,5132 836,9240 2507,12326 -326,2588 -488,5237 -488,7948 0,4311 434,8543 1301,12691 866,4146 2157,8118 3871,11915 1687,3733 3722,7257 6104,10568 2384,3313 5060,6332 8026,9056 1688,1549 3485,3015 5392,4398 -3538,1089 -7239,2042 -11105,2861 -9118,1931 -17753,2896 -25905,2896 -16305,0 -28856,-4183 -37651,-12550 -3046,-2896 -5564,-6243 -7555,-10039 3797,-4050 7166,-8401 10106,-13049 3207,-5073 5896,-10516 8068,-16326 2175,-5819 3790,-11676 4842,-17568 1069,-5983 1604,-12090 1604,-18320 0,-6231 -535,-12339 -1604,-18321 -1052,-5892 -2667,-11749 -4842,-17568 -2172,-5810 -4862,-11253 -8068,-16326 -3233,-5113 -6985,-9864 -11255,-14252 -1441,-1480 -2938,-2910 -4491,-4288 z m -69844,238135 c -15232,0 -28587,-2413 -40064,-7241 -11478,-4827 -21132,-11263 -28963,-19307 -7830,-8046 -13730,-17378 -17699,-27998 -3969,-10619 -5953,-21721 -5953,-33306 0,-11586 1984,-22688 5953,-33307 3969,-10620 9869,-19952 17699,-27997 7831,-8046 17485,-14482 28963,-19309 11477,-4827 24832,-7240 40064,-7240 15018,0 28319,2413 39905,7240 11584,4827 21292,11263 29123,19309 7830,8045 13730,17377 17699,27997 3969,10619 5953,21721 5953,33307 0,11585 -1984,22687 -5953,33306 -3969,10620 -9869,19952 -17699,27998 -7831,8044 -17539,14480 -29123,19307 -11586,4828 -24887,7241 -39905,7241 z m -29927,-87852 c 0,11370 2789,20273 8367,26710 5578,6435 12764,9653 21560,9653 8797,0 15983,-3218 21561,-9653 5578,-6437 8367,-15340 8367,-26710 0,-11371 -2789,-20274 -8367,-26711 -5578,-6435 -12764,-9653 -21561,-9653 -8796,0 -15982,3218 -21560,9653 -5578,6437 -8367,15340 -8367,26711 z m -157647,84634 c -10941,0 -20971,-2199 -30089,-6597 -9118,-4398 -16895,-10405 -23331,-18021 -6436,-7616 -11424,-16573 -14964,-26871 -3539,-10297 -5309,-21453 -5309,-33467 0,-12658 1931,-24350 5792,-35077 3862,-10727 9279,-19952 16251,-27675 6973,-7724 15286,-13784 24940,-18183 9654,-4397 20274,-6596 31859,-6596 12228,0 22956,2413 32180,7240 9226,4827 16520,11854 21884,21078 v -25100 h 53097 v 19139 c -3887,4115 -7329,8543 -10325,13281 -3206,5073 -5896,10516 -8068,16326 -2175,5819 -3790,11676 -4842,17568 -1069,5982 -1604,12090 -1604,18321 0,6230 535,12337 1604,18320 1052,5891 2667,11748 4842,17568 2172,5810 4862,11253 8068,16326 2996,4738 6438,9166 10325,13282 v 3691 c 0,13302 -2467,25316 -7401,36043 -4935,10727 -11907,19844 -20918,27353 -9010,7509 -19845,13355 -32502,17538 -12658,4184 -26710,6276 -42156,6276 -18022,0 -33683,-2789 -46984,-8367 -13301,-5578 -25101,-13623 -35399,-24136 l 32181,-33467 c 6221,5792 13676,10673 22365,14642 8689,3969 17968,5953 27837,5953 5578,0 10887,-751 15929,-2253 5041,-1501 9493,-3915 13354,-7240 3862,-3325 6919,-7670 9172,-13033 2252,-5363 3379,-11800 3379,-19309 v -10941 c -4934,9010 -11960,15661 -21078,19952 -9118,4291 -19147,6436 -30089,6436 z m 21883,-48271 c 6222,0 11639,-1448 16251,-4344 4612,-2896 8956,-7240 13033,-13033 v -30250 c -3004,-7723 -7455,-13837 -13355,-18343 -5899,-4505 -12068,-6757 -18504,-6757 -4290,0 -8313,1019 -12067,3057 -3754,2038 -7027,4719 -9815,8045 -2789,3325 -4935,7294 -6437,11907 -1501,4612 -2252,9493 -2252,14642 0,10512 3111,18986 9333,25423 6221,6435 14158,9653 23813,9653 z m -84199,48271 h -61143 v -95254 c 0,-8367 -1877,-14428 -5632,-18182 -3754,-3754 -8098,-5631 -13033,-5631 -5149,0 -10619,2252 -16412,6757 -5792,4506 -10083,10298 -12872,17378 v 94932 h -32716 l -960,-2581 -27467,-73870 v -92818 h 55028 v 25100 c 6008,-9224 14428,-16251 25262,-21078 10835,-4827 23653,-7240 38456,-7240 11585,0 20757,2091 27514,6275 6758,4183 11907,9386 15447,15607 1858,3266 3376,6650 4554,10152 -349,566 -693,1137 -1032,1715 -2933,4995 -5447,10400 -7539,16211 -4170,11586 -6256,24110 -6256,37571 0,6294 481,12474 1443,18537 964,6075 2388,11856 4272,17337 1890,5497 4206,10709 6947,15630 1868,3355 3915,6531 6139,9528 z M 215423,153088 194184,229678 h 41513 z"
   id="path7" />
 </g>
 <g
   id="Layer_x0020_3"
   transform="translate(-56728,-47917.413)">
  <metadata
   id="CorelCorpID_2Corel-Layer" />
  <path
   fill="#ff2e35"
   d="m 608659,475781 55550,-148831 h 33120 l 55340,148831 h -43182 l -9014,-29137 h -39618 l -8804,29137 z m 72110,-106277 -13836,49889 h 27042 z"
   id="path11" />
 </g>
 <g
   id="Layer_x0020_4"
   transform="translate(-56728,-47917.413)">
  <metadata
   id="CorelCorpID_3Corel-Layer" />
  <path
   fill="#00aeef"
   d="m 820691,356031 c -7209,2667 -13472,5878 -18787,9633 -5317,3755 -8737,8001 -10263,12737 l 33168,88349 -37353,13820 -48734,-130420 34208,-12656 7274,19659 c 1099,-8304 3678,-15330 7735,-21078 4057,-5747 9231,-9785 15522,-12113 2491,-921 4088,-1438 4791,-1549 z"
   id="path15" />
 </g>
 <g
   id="Layer_x0020_5"
   transform="translate(-56728,-47917.413)">
  <metadata
   id="CorelCorpID_4Corel-Layer" />
  <path
   fill="#8cc63f"
   d="m 920693,480131 c -5591,2376 -11565,4367 -17923,5975 -6359,1606 -12612,2410 -18761,2410 -4472,0 -8735,-559 -12787,-1677 -4053,-1118 -7581,-2935 -10586,-5450 -3005,-2515 -5380,-5800 -7127,-9852 -1747,-4053 -2620,-9084 -2620,-15093 v -50518 h -13626 v -29976 h 13626 v -34588 h 39828 v 34588 h 21590 v 29976 h -21590 v 36473 c 0,3634 768,6184 2305,7651 1537,1468 3634,2202 6289,2202 1957,0 4193,-315 6708,-944 2515,-629 5031,-1502 7546,-2620 z"
   id="path19" />
 </g>
 <g
   id="Layer_x0020_6"
   transform="translate(-56728,-47917.413)">
  <metadata
   id="CorelCorpID_5Corel-Layer" />
  <path
   fill="#f9ed33"
   d="m 998504,460585 c -5117,0 -10621,-388 -16513,-1163 -5892,-776 -11668,-1783 -17327,-3024 -5659,-1240 -11125,-2752 -16397,-4535 -5271,-1783 -9845,-3760 -13722,-5930 l 16979,-30003 c 8527,4497 16667,7908 24420,10234 7752,2325 14962,3488 21630,3488 7752,0 11628,-1938 11628,-5814 0,-2016 -1550,-3799 -4651,-5349 -3101,-1551 -8993,-3412 -17676,-5582 -8683,-2326 -15970,-4652 -21862,-6977 -5892,-2326 -10621,-4924 -14187,-7792 -3567,-2868 -6125,-6047 -7676,-9536 -1550,-3488 -2325,-7558 -2325,-12210 0,-6202 1279,-11939 3837,-17211 2559,-5271 6164,-9846 10815,-13722 4652,-3876 10195,-6861 16630,-8954 6434,-2093 13450,-3140 21048,-3140 8217,0 17017,1163 26397,3489 9381,2326 18955,5737 28723,10233 l -16978,28142 c -8682,-4031 -15893,-6938 -21629,-8722 -5737,-1783 -11242,-2674 -16513,-2674 -3412,0 -6164,504 -8257,1512 -2093,1008 -3140,2597 -3140,4768 0,1240 311,2287 931,3139 620,853 1705,1667 3256,2442 1550,776 3682,1590 6396,2442 2713,853 6085,1745 10116,2675 9304,2326 17134,4768 23491,7326 6357,2558 11435,5350 15233,8373 3800,3023 6513,6434 8141,10233 1628,3799 2442,8179 2442,13141 0,12559 -4768,22483 -14303,29770 -9536,7287 -22522,10931 -38957,10931 z"
   id="path23" />
 </g>
 <g
   id="Layer_x0020_7"
   transform="translate(-56728,-47917.413)">
  <metadata
   id="CorelCorpID_6Corel-Layer" />
  <path
   fill="#262123"
   d="m 641943,513581 h -22786 v 7633 h 13728 v 19255 c 0,3418 -1822,5240 -4785,5240 -2449,0 -5639,-1481 -8430,-4443 l -4159,6380 c 3361,3931 7691,6210 13045,6210 8260,0 13387,-4786 13387,-13160 z m 54061,-285 c -12191,0 -21419,8602 -21419,20223 0,11564 9228,20337 21419,20337 12190,0 21418,-8830 21418,-20337 0,-11564 -9228,-20223 -21418,-20223 z m 113,7861 c 6665,0 12077,5355 12077,12362 0,7007 -5412,12475 -12077,12475 -6665,0 -12304,-5468 -12304,-12475 0,-7007 5583,-12362 12304,-12362 z m 89949,-7576 h -9001 v 23185 c 0,5753 -3532,9228 -8886,9228 -5355,0 -9114,-3475 -9114,-9228 v -23185 h -9001 v 23185 c 0,10538 7064,17090 18115,17090 10994,0 17887,-6552 17887,-17090 z m 59985,39876 h 10197 l -8488,-13159 c 4842,-2279 7462,-6722 7462,-12874 0,-8830 -5924,-13843 -16349,-13843 h -17317 v 39876 h 9000 v -11393 h 8317 855 z m -15495,-18913 v -13501 h 8317 c 4956,0 7804,2222 7804,6665 0,4558 -2848,6836 -7804,6836 z m 95816,18913 v -39876 h -8545 v 25634 l -19368,-25634 h -8203 v 39876 h 8602 v -25578 l 19311,25578 z m 62548,-7748 3133,7748 h 9627 l -17032,-39876 h -9286 l -17317,39876 h 9285 l 3133,-7748 z m -2905,-7234 h -12589 l 6323,-15495 z m 56282,7121 v -32015 h -9001 v 39876 h 26090 v -7861 z"
   id="path27" />
 </g>
</svg>
