<?xml version="1.0" encoding="UTF-8" standalone="no"?>
<svg
   xmlns:dc="http://purl.org/dc/elements/1.1/"
   xmlns:cc="http://creativecommons.org/ns#"
   xmlns:rdf="http://www.w3.org/1999/02/22-rdf-syntax-ns#"
   xmlns:svg="http://www.w3.org/2000/svg"
   xmlns="http://www.w3.org/2000/svg"
   id="Layer_1"
   data-name="Layer 1"
   viewBox="0 0 390.60999 91.379997"
   version="1.1"
   width="390.60999"
   height="91.379997">
  <metadata
     id="metadata69">
    <rdf:RDF>
      <cc:Work
         rdf:about="">
        <dc:format>image/svg+xml</dc:format>
        <dc:type
           rdf:resource="http://purl.org/dc/dcmitype/StillImage" />
      </cc:Work>
    </rdf:RDF>
  </metadata>
  <defs
     id="defs4">
    <style
       id="style2">.cls-1{fill:#f15a24;}</style>
  </defs>
  <path
     class="cls-1"
     d="m 139.13,71.5 c -0.17,6.29 3.59,7.68 7.59,7.68 4,0 7.43,-1.88 7.43,-5.8 0,-2.94 -1.8,-5.39 -7.27,-5.39 -13.55,0 -22.45,-7.84 -22.45,-20.33 0,-12.65 10,-20.65 22.45,-20.65 a 24.65,24.65 0 0 1 8.33,1.55 c 1.39,-1.8 3,-3.84 4.33,-5.55 l 10.85,7.75 -5.22,6.21 a 15.11,15.11 0 0 1 3.84,10.86 17,17 0 0 1 -7.35,13.39 c 7.43,4.24 7.92,9.95 7.92,12.16 0,13.06 -11.35,18 -22.86,18 -14.45,0 -22.53,-7.51 -21.72,-19.84 z m -0.09,-23.8 a 7.57,7.57 0 0 0 7.84,7.92 c 4,0 7.59,-2.53 7.59,-7.92 0,-4.57 -3.18,-8.32 -7.59,-8.32 -4.41,0 -7.84,2.9 -7.84,8.32 z"
     id="path6" />
  <path
     class="cls-1"
     d="m 211.45,52.7 h -28.17 c 1.07,3.6 5.72,5.15 9,5.15 a 16.71,16.71 0 0 0 10.37,-3.27 l 7.35,8.25 c -4.82,4.49 -11.43,6.69 -18.37,6.69 -12.73,0 -23.51,-6.28 -23.51,-21 0,-14.72 11.51,-21.22 22.45,-21.22 14.3,0.04 24.3,9.51 20.88,25.4 z m -13.47,-9.63 c -0.41,-6.37 -13.63,-6.61 -14.61,0 z"
     id="path8" />
  <path
     class="cls-1"
     d="M 239.36,68.64 V 46.36 c 0,-5 -2.86,-6.7 -5.63,-6.7 -3.59,0 -6.94,2.45 -6.94,7.76 V 68.64 H 211.93 V 28.32 h 13.31 l 0.63,4.38 a 16.34,16.34 0 0 1 12.74,-5.38 c 8.49,0.08 15.75,4.57 15.75,18.94 v 22.36 z"
     id="path10" />
  <path
     class="cls-1"
     d="m 283.7,58.1 -0.67,-2.27 a 8.56,8.56 0 0 1 -4.41,1.38 c -2.28,0 -3.92,-1.06 -4,-3.91 V 40.07 h 9.08 V 28.56 h -9 V 16.89 l -14.93,1.63 v 10 h -6.45 v 11.51 h 6.45 V 53.3 c -0.25,12.65 6.93,16.32 14.93,16.32 a 25.49,25.49 0 0 0 9,-1.47 z"
     id="path12" />
  <path
     class="cls-1"
     d="m 292.5,10.36 c 4.16,0 8.41,2.53 8.41,7.59 0,5.06 -4.25,7.51 -8.41,7.51 -4.16,0 -8.49,-2.53 -8.49,-7.51 0,-4.98 4.24,-7.59 8.49,-7.59 z m 7.51,58.28 V 28.97 h -15.14 v 39.67 z"
     id="path14" />
  <path
     class="cls-1"
     d="M 329.72,68.64 V 46.36 c 0,-5 -2.86,-6.7 -5.63,-6.7 -3.59,0 -6.94,2.45 -6.94,7.76 V 68.64 H 302.29 V 28.32 h 13.31 l 0.65,4.4 a 16.34,16.34 0 0 1 12.74,-5.38 c 8.49,0.08 15.75,4.57 15.75,18.94 v 22.36 z"
     id="path16" />
  <path
     class="cls-1"
     d="m 376.49,28.32 h 14.12 v 40.32 h -13.87 l -0.66,-4.32 c -3.43,3.92 -8.81,5.3 -13.3,5.06 -11.84,-0.74 -18.45,-9.14 -18.45,-20.9 0,-11.92 7.83,-21.06 19.59,-21.06 5.71,0 9.71,2 11.84,5.22 z m -17.22,20.16 c 0,5.63 3.59,8.82 8.08,8.82 5.06,0 8.32,-4.09 8.32,-8.82 0,-5.39 -3,-8.9 -8.32,-8.9 -4.48,0 -8.08,3.27 -8.08,8.9 z"
     id="path18" />
  <path
     class="cls-1"
     d="m 128.71,30.19 a 15,15 0 0 0 -8.93,-2.85 10.79,10.79 0 0 0 -9.79,5.38 l -0.9,-4.4 H 95.62 v 40.32 h 15 V 47.7 c 0,-5.3 3.18,-7.59 6.94,-7.59 a 9.33,9.33 0 0 1 4.44,0.93 22.6,22.6 0 0 1 6.71,-10.85 z"
     id="path20" />
  <path
     d="m 181.2,84.23 h -8.05 V 74.17 H 181 v 2.38 h -5 v 1.44 h 4.76 V 80.3 H 176 v 1.53 h 5.25 z"
     id="path22" />
  <path
     d="m 190.05,79.7 c -0.07,-1.21 -0.07,-1.67 -0.09,-2.05 V 74.2 h 2.91 v 10.06 h -2.41 l -4.2,-5.42 v 2.2 3.22 h -2.87 V 74.17 h 2.41 z"
     id="path24" />
  <path
     d="m 197.56,76.51 h -2.93 v -2.34 h 8.71 v 2.34 h -2.95 v 7.72 h -2.83 z"
     id="path26" />
  <path
     d="m 213.19,84.23 h -8 V 74.17 h 7.85 v 2.38 h -5 v 1.44 h 4.75 v 2.31 h -4.75 v 1.53 h 5.24 z"
     id="path28" />
  <path
     d="m 224.68,84.23 h -3.13 l -2.34,-3.27 h -1 v 3.27 h -2.84 V 74.17 h 4.91 c 2.58,0 3.91,1.65 3.91,3.46 a 3,3 0 0 1 -2.12,3 l 2.61,3.39 z m -6.46,-7.79 v 2.41 h 2.09 a 1.05,1.05 0 0 0 1.08,-1.16 1.13,1.13 0 0 0 -1.11,-1.25 z"
     id="path30" />
  <path
     d="m 228.5,76.51 h -2.93 v -2.34 h 8.71 v 2.34 h -2.95 v 7.72 h -2.83 z"
     id="path32" />
  <path
     d="m 242.11,82.57 h -4.5 l -0.66,1.66 h -3 l 4.51,-10.06 h 2.88 l 4.49,10.06 h -3 z m -2.24,-5.59 -1.3,3.21 h 2.57 z"
     id="path34" />
  <path
     d="M 247.19,84.23 V 74.17 h 2.83 v 10.06 z"
     id="path36" />
  <path
     d="m 259.3,79.7 c -0.07,-1.21 -0.07,-1.67 -0.08,-2.05 V 74.2 h 2.85 v 10.06 h -2.41 l -4.19,-5.42 v 2.2 3.22 h -2.88 V 74.17 h 2.42 z"
     id="path38" />
  <path
     d="m 273.09,78.23 -2.57,3.05 h -0.5 l -2.52,-3 v 6 h -2.81 V 74.17 h 3 l 2.65,3.4 2.64,-3.4 h 3 v 10.06 h -2.82 z"
     id="path40" />
  <path
     d="m 286.57,84.23 h -8.05 V 74.17 h 7.85 v 2.38 h -5.05 v 1.44 h 4.76 v 2.31 h -4.76 v 1.53 h 5.25 z"
     id="path42" />
  <path
     d="m 295.42,79.7 c -0.08,-1.21 -0.08,-1.67 -0.09,-2.05 V 74.2 h 2.86 v 10.06 h -2.41 l -4.2,-5.42 v 2.2 3.22 h -2.87 V 74.17 h 2.41 z"
     id="path44" />
  <path
     d="M 302.93,76.51 H 300 v -2.34 h 8.7 v 2.34 h -2.94 v 7.72 h -2.83 z"
     id="path46" />
  <path
     d="m 322.97,82.92 a 5.51,5.51 0 0 1 -4,1.56 c -3.95,0 -5.49,-2.48 -5.5,-5.21 a 5.16,5.16 0 0 1 5.5,-5.33 5.4,5.4 0 0 1 3.9,1.61 l -1.76,1.72 a 2.94,2.94 0 0 0 -2.14,-0.87 2.66,2.66 0 0 0 -2.69,2.88 2.58,2.58 0 0 0 2.69,2.79 3.48,3.48 0 0 0 2.37,-1 z"
     id="path48" />
  <path
     d="m 331.17,84.24 v -3.81 h -3.62 v 3.81 h -2.84 V 74.18 h 2.84 V 78 h 3.62 v -3.82 h 2.82 v 10.06 z"
     id="path50" />
  <path
     d="m 343.54,82.57 h -4.5 l -0.66,1.66 h -3 l 4.49,-10.06 h 2.87 l 4.5,10.06 h -3.05 z m -2.24,-5.59 -1.3,3.21 h 2.58 z"
     id="path52" />
  <path
     d="m 355.29,79.7 c -0.07,-1.21 -0.07,-1.67 -0.09,-2.05 V 74.2 h 2.86 v 10.06 h -2.41 l -4.2,-5.42 0.05,2.2 v 3.22 h -2.88 V 74.17 h 2.42 z"
     id="path54" />
  <path
     d="m 367.34,79.7 c -0.07,-1.21 -0.07,-1.67 -0.08,-2.05 V 74.2 h 2.86 v 10.06 h -2.42 l -4.19,-5.42 v 2.2 3.22 h -2.87 V 74.17 h 2.41 z"
     id="path56" />
  <path
     d="m 380.77,84.23 h -8 V 74.17 h 7.84 v 2.38 h -5 v 1.44 h 4.76 v 2.31 h -4.76 v 1.53 h 5.24 z"
     id="path58" />
  <path
     d="m 385.8,74.17 v 7.64 h 4.81 v 2.42 h -7.65 V 74.17 Z"
     id="path60" />
  <path
     d="M 47.66,50.7 C 44.28,44.76 40.88,38.84 37.52,32.89 c -2.2,-3.9 -2.6,-7.89 -0.46,-12 1.07,-2 2,-4.12 3.16,-6.11 C 43.02,9.92 45.9,5.1 48.9,0 c 16.32,28.23 32.54,56.32 48.86,84.56 -0.53,0 -1,0.08 -1.37,0.08 H 74.87 A 12.18,12.18 0 0 1 63.73,78.29 c -3,-5.1 -5.93,-10.24 -8.92,-15.35 -0.48,-0.83 -1.09,-1.58 -1.65,-2.38 -1.56,-2.67 -3.13,-5.33 -4.67,-8 -0.3,-0.55 -0.54,-1.2 -0.83,-1.86 z"
     id="path62" />
  <path
     class="cls-1"
     d="m 47.66,50.7 c 0.29,0.62 0.53,1.27 0.87,1.87 1.54,2.68 3.11,5.34 4.67,8 -0.18,3.16 0.1,6.42 -0.64,9.43 -1.53,6.19 -5,11.12 -11.26,13.43 a 12.49,12.49 0 0 1 -4,0.87 c -9.46,0.16 -18.92,0.23 -28.38,0.31 -2.85,0 -5.71,0 -8.92,0 0.85,-1.52 1.54,-2.79 2.28,-4 q 7.8,-13.28 15.61,-26.54 c 3.8,-6.43 12.06,-9.23 18.66,-8.06 a 20.7,20.7 0 0 1 9.21,3.87 9,9 0 0 0 1.9,0.82 z"
     id="path64" />
</svg>
