<?xml version="1.0" encoding="UTF-8" standalone="no"?>
<svg
   xmlns:dc="http://purl.org/dc/elements/1.1/"
   xmlns:cc="http://creativecommons.org/ns#"
   xmlns:rdf="http://www.w3.org/1999/02/22-rdf-syntax-ns#"
   xmlns:svg="http://www.w3.org/2000/svg"
   xmlns="http://www.w3.org/2000/svg"
   xml:space="preserve"
   width="10.379912in"
   height="2.9001372in"
   version="1.0"
   shape-rendering="geometricPrecision"
   text-rendering="geometricPrecision"
   image-rendering="optimizeQuality"
   fill-rule="evenodd"
   clip-rule="evenodd"
   viewBox="0 0 1037992.2 290013.71"
   id="svg22"><metadata
   id="metadata28"><rdf:RDF><cc:Work
       rdf:about=""><dc:format>image/svg+xml</dc:format><dc:type
         rdf:resource="http://purl.org/dc/dcmitype/StillImage" /></cc:Work></rdf:RDF></metadata><defs
   id="defs26" />
 <g
   id="Layer_x0020_1"
   transform="translate(-65649.768,-72545.413)">
  <metadata
   id="CorelCorpID_0Corel-Layer" />
  <path
   fill="#62bd69"
   d="m 282416,113302 -86858,207412 -21,-8 c -9510,21042 -36304,35043 -66747,32895 -36829,-2597 -65051,-27841 -63039,-56383 2013,-28541 33501,-49574 70329,-46974 19513,1375 36607,9112 48071,20322 763,-1823 48504,-115547 70797,-168726 l -81,-17 2105,-5004 1872,-4445 1643,-3900 1420,-3373 1206,-2864 4076,-9692 c 40645,12118 56807,49219 56330,103309 -9284,-29372 -22974,-50245 -41103,-62552 z"
   id="path3" />
 </g>
 <g
   id="Layer_x0020_2"
   transform="translate(-65649.768,-72545.413)">
  <metadata
   id="CorelCorpID_1Corel-Layer" />
  <path
   fill="#62bd69"
   d="m 267827,162960 53860,126619 h -11470 l -20652,-48804 h -54324 l 3666,-8761 h 47740 l -23810,-57138 z m 124771,27549 c -9872,281 -18421,3164 -25657,8656 -7229,5489 -12301,13038 -15222,22629 v 67785 H 341290 V 181126 h 9806 v 26699 c 3752,-7652 8723,-13874 14910,-18671 6187,-4797 12826,-7542 19919,-8240 1390,0 2644,-34 3752,-101 1115,-69 2091,-104 2921,-104 z m 68616,93856 c -550,274 -1491,802 -2814,1563 -1320,767 -2988,1497 -5003,2192 -2018,698 -4276,1323 -6780,1876 -2502,556 -5215,837 -8133,837 -2924,0 -5669,-417 -8243,-1254 -2571,-834 -4829,-2085 -6774,-3755 -1948,-1665 -3515,-3683 -4693,-6045 -1185,-2366 -1775,-5148 -1775,-8344 v -81757 h -15226 v -8552 h 15226 v -37125 h 10428 v 37125 h 25446 v 8552 h -25446 v 79252 c 0,4033 1393,7059 4172,9074 2780,2015 5979,3022 9592,3022 4311,0 8031,-729 11161,-2185 3127,-1462 5041,-2400 5732,-2817 z m 52142,7302 c -8341,0 -16334,-1393 -23984,-4173 -7646,-2782 -14322,-6951 -20022,-12516 l 5217,-7087 c 5836,5284 11884,9175 18140,11676 6257,2505 13142,3755 20649,3755 9456,0 17070,-1980 22840,-5943 5770,-3964 8657,-9488 8657,-16581 0,-3338 -733,-6155 -2192,-8448 -1462,-2296 -3651,-4242 -6569,-5840 -2918,-1598 -6535,-3025 -10846,-4273 -4310,-1254 -9316,-2574 -15020,-3963 -6114,-1393 -11433,-2783 -15952,-4172 -4522,-1390 -8240,-3061 -11161,-5003 -2918,-1952 -5107,-4314 -6569,-7093 -1459,-2783 -2192,-6326 -2192,-10637 0,-5423 1045,-10154 3130,-14184 2090,-4033 4971,-7371 8657,-10011 3685,-2644 7927,-4624 12724,-5947 4797,-1320 9907,-1981 15330,-1981 8480,0 15990,1431 22524,4277 6535,2852 11610,6503 15223,10949 l -5836,5632 c -3613,-4169 -8310,-7299 -14080,-9384 -5770,-2087 -11922,-3129 -18456,-3129 -4033,0 -7823,413 -11367,1250 -3547,837 -6642,2157 -9282,3964 -2643,1806 -4731,4140 -6256,6986 -1532,2852 -2296,6225 -2296,10116 0,3196 521,5773 1566,7718 1043,1949 2710,3613 5003,5006 2296,1389 5249,2606 8865,3651 3613,1042 7924,2188 12930,3439 6812,1668 12863,3269 18147,4798 5283,1531 9699,3407 13242,5627 3547,2227 6256,4867 8132,7928 1876,3063 2818,6954 2818,11679 0,9736 -3790,17487 -11367,23257 -7576,5770 -17692,8657 -30347,8657 z"
   id="path7" />
 </g>
 <g
   id="Layer_x0020_3"
   transform="translate(-65649.768,-72545.413)">
  <metadata
   id="CorelCorpID_2Corel-Layer" />
  <path
   fill="#452535"
   d="M 491031,175094 V 99139 h 68988 c 15510,0 29103,2498 40778,7488 11676,4993 21438,11764 29280,20323 7845,8556 13726,18583 17648,30082 3923,11499 5884,23753 5884,36768 0,14439 -2185,27495 -6550,39171 -4368,11676 -10653,21659 -18852,29949 -8201,8291 -18049,14708 -29548,19253 -11499,4544 -24378,6818 -38640,6818 h -10432 c 4399,-3524 7776,-7684 10113,-12468 2482,-5079 3726,-10672 3726,-16770 0,-1081 -44,-2145 -132,-3190 7766,-341 14742,-1924 20926,-4741 7039,-3208 12923,-7620 17648,-13236 4725,-5615 8335,-12254 10830,-19919 2495,-7668 3742,-15955 3742,-24867 0,-9093 -1247,-17472 -3742,-25137 -2495,-7665 -6150,-14262 -10966,-19789 -4813,-5524 -10738,-9803 -17780,-12835 -7040,-3029 -15018,-4545 -23933,-4545 h -32088 v 40672 l -221,-41 c -4323,-821 -8837,-1235 -13517,-1235 -6083,0 -11926,771 -17515,2309 h -35 c -1927,530 -3800,1165 -5612,1895 z m 224615,116573 c -6774,0 -13103,-1115 -18984,-3345 -5884,-2227 -10966,-5347 -15242,-9358 -4279,-4011 -7620,-8691 -10027,-14038 -2407,-5347 -3610,-11231 -3610,-17648 0,-6598 1469,-12703 4412,-18318 2940,-5615 7040,-10384 12298,-14303 5259,-3923 11544,-6999 18851,-9226 7312,-2229 15334,-3344 24066,-3344 6241,0 12346,537 18318,1604 5972,1071 11275,2587 15911,4548 v -8022 c 0,-9273 -2631,-16400 -7889,-21393 -5259,-4991 -13056,-7485 -23396,-7485 -7489,0 -14797,1335 -21928,4010 -7131,2672 -14439,6595 -21927,11765 l -10962,-22730 c 18004,-11944 37434,-17916 58291,-17916 20146,0 35789,4949 46928,14843 11142,9892 16713,24198 16713,42917 v 43583 c 0,3746 714,6418 2141,8022 1424,1605 3920,2498 7485,2675 v 30483 c -3386,714 -6550,1203 -9490,1472 -2944,265 -5483,401 -7624,401 -6772,-180 -11942,-1740 -15507,-4680 -3566,-2941 -5796,-6907 -6686,-11901 l -802,-7753 c -6238,8199 -13814,14440 -22730,18719 -8912,4276 -18450,6418 -28610,6418 z m 10160,-26208 c 6064,0 11811,-1067 17247,-3208 5438,-2138 9673,-4990 12702,-8556 3923,-3032 5884,-6417 5884,-10160 v -16044 c -4280,-1604 -8913,-2899 -13906,-3878 -4990,-982 -9803,-1472 -14439,-1472 -9270,0 -16846,2094 -22730,6285 -5880,4188 -8824,9494 -8824,15911 0,6061 2318,11095 6954,15106 4634,4011 10341,6016 17112,6016 z m 105892,23532 V 155108 c 5315,4062 11950,6475 19154,6475 6124,0 11834,-1747 16676,-4760 V 288991 Z M 899081,93792 h 35833 v 148673 c 0,10873 4902,16312 14705,16312 1961,0 4235,-357 6818,-1071 2587,-713 5038,-1516 7356,-2406 l 4813,28610 c -4813,2318 -10428,4102 -16846,5350 -6417,1247 -12213,1870 -17383,1870 -11230,0 -19918,-2985 -26071,-8957 -6149,-5972 -9225,-14484 -9225,-25538 z m 79954,222474 c 3208,890 6148,1515 8824,1873 2671,356 4989,533 6951,533 2318,0 4368,-401 6149,-1203 1784,-802 3521,-2274 5214,-4412 1696,-2138 3389,-5126 5082,-8957 1692,-3834 3521,-8868 5482,-15109 L 961118,148874 h 36901 l 38236,109100 33692,-109100 h 33695 l -59097,167926 c -3742,10696 -9714,18943 -17916,24735 -8199,5795 -17737,8691 -28610,8691 -6241,0 -12567,-982 -18984,-2943 z"
   id="path11" />
 </g>
 <g
   id="Layer_x0020_4"
   transform="translate(-65649.768,-72545.413)">
  <metadata
   id="CorelCorpID_3Corel-Layer" />
  <path
   fill="#62bd69"
   d="m 850852,95740 c 13844,0 25067,11224 25067,25067 0,13843 -11223,25067 -25067,25067 -13844,0 -25067,-11224 -25067,-25067 0,-13843 11223,-25067 25067,-25067 z"
   id="path15" />
 </g>
 <g
   id="Layer_x0020_5"
   transform="translate(-65649.768,-72545.413)">
  <metadata
   id="CorelCorpID_4Corel-Layer" />
  <path
   fill="#452535"
   d="m 233657,326215 v 35946 h -5969 v -47088 h 4643 l 29181,36676 v -36609 h 5969 v 47021 h -5040 z m 93712,30641 v 5305 h -31967 v -47088 h 31370 v 5306 h -25401 v 15254 h 22085 v 4974 h -22085 v 16249 z m 39991,-41517 h 5638 l 6233,16381 6301,-16381 h 5638 l -8158,20493 8091,19432 15917,-40191 h 6500 l -19698,47088 h -5173 l -9351,-22217 -9418,22217 h -5173 l -19631,-47088 h 6433 l 15984,40191 8025,-19432 z m 80315,22947 c 0,-2830 497,-5649 1492,-8456 995,-2808 2454,-5328 4377,-7561 1924,-2233 4278,-4034 7063,-5405 2786,-1371 5947,-2056 9484,-2056 4201,0 7804,951 10811,2852 3006,1901 5239,4377 6698,7428 l -4709,3051 c -707,-1504 -1558,-2764 -2553,-3781 -995,-1017 -2078,-1835 -3250,-2454 -1171,-619 -2376,-1061 -3614,-1326 -1238,-265 -2454,-398 -3648,-398 -2608,0 -4919,542 -6930,1625 -2012,1083 -3703,2498 -5074,4245 -1370,1746 -2398,3713 -3084,5902 -685,2189 -1028,4388 -1028,6599 0,2476 409,4830 1227,7063 818,2233 1957,4212 3416,5936 1459,1724 3183,3095 5173,4112 1989,1017 4156,1525 6499,1525 1238,0 2509,-154 3814,-464 1304,-310 2553,-807 3747,-1492 1194,-685 2310,-1548 3349,-2587 1039,-1039 1890,-2288 2553,-3747 l 4975,2719 c -752,1769 -1802,3327 -3151,4676 -1348,1349 -2874,2487 -4576,3415 -1702,929 -3504,1636 -5405,2123 -1901,486 -3758,729 -5571,729 -3228,0 -6190,-707 -8887,-2122 -2697,-1415 -5030,-3261 -6997,-5538 -1968,-2277 -3493,-4863 -4576,-7759 -1083,-2896 -1625,-5847 -1625,-8854 z m 57964,23875 19366,-47088 h 4908 l 19300,47088 h -6367 l -5571,-13794 h -19764 l -5505,13794 z m 21820,-40190 -8754,21753 h 17243 z m 42645,40190 v -47088 h 5968 v 41783 h 26263 v 5305 z m 85952,-5305 v 5305 h -31967 v -47088 h 31370 v 5306 h -25401 v 15254 h 22085 v 4974 h -22085 v 16249 z m 25135,5305 v -47088 h 16315 c 3759,0 7064,619 9915,1857 2852,1239 5229,2918 7130,5041 1901,2122 3327,4609 4278,7461 950,2852 1425,5891 1425,9119 0,3581 -530,6820 -1591,9716 -1061,2896 -2587,5372 -4576,7428 -1990,2056 -4389,3648 -7196,4775 -2808,1128 -5936,1691 -9385,1691 z m 33028,-23610 c 0,-2653 -365,-5095 -1094,-7329 -730,-2232 -1813,-4144 -3250,-5736 -1437,-1592 -3194,-2841 -5272,-3747 -2079,-907 -4444,-1360 -7097,-1360 h -10346 v 36477 h 10346 c 2697,0 5096,-465 7196,-1393 2100,-928 3847,-2211 5239,-3847 1393,-1636 2454,-3570 3184,-5803 729,-2233 1094,-4653 1094,-7262 z m 50470,23942 c -3316,0 -6333,-674 -9052,-2023 -2720,-1348 -5052,-3139 -6997,-5372 -1946,-2233 -3449,-4786 -4510,-7660 -1061,-2874 -1592,-5814 -1592,-8821 0,-3139 564,-6145 1691,-9019 1128,-2874 2686,-5417 4676,-7627 1989,-2211 4344,-3969 7063,-5273 2719,-1304 5671,-1956 8854,-1956 3316,0 6322,696 9020,2089 2697,1393 5018,3216 6964,5471 1945,2255 3448,4809 4509,7661 1061,2851 1592,5758 1592,8721 0,3139 -564,6146 -1691,9020 -1128,2873 -2675,5405 -4643,7593 -1967,2189 -4310,3935 -7030,5240 -2719,1304 -5670,1956 -8854,1956 z m -16116,-23876 c 0,2388 387,4698 1161,6931 773,2233 1868,4211 3283,5936 1414,1724 3117,3095 5107,4112 1989,1017 4200,1525 6632,1525 2520,0 4775,-541 6764,-1625 1990,-1083 3681,-2498 5074,-4244 1393,-1747 2454,-3726 3184,-5936 729,-2211 1094,-4444 1094,-6699 0,-2387 -387,-4697 -1161,-6930 -774,-2233 -1879,-4200 -3316,-5903 -1437,-1702 -3139,-3062 -5107,-4078 -1967,-1017 -4145,-1526 -6532,-1526 -2521,0 -4775,531 -6765,1592 -1990,1061 -3681,2454 -5074,4178 -1393,1724 -2465,3692 -3216,5903 -752,2210 -1128,4465 -1128,6764 z m 69306,-12402 v 35946 h -5969 v -47088 h 4642 l 29181,36676 v -36609 h 5969 v 47021 h -5040 z m 61745,35946 v -47021 h 5969 v 47021 z m 26926,0 19366,-47088 h 4908 l 19299,47088 h -6367 l -5571,-13794 h -19763 l -5505,13794 z m 21820,-40190 -8755,21753 h 17244 z"
   id="path19" />
 </g>
</svg>
