<?xml version="1.0" encoding="UTF-8" standalone="no"?>
<svg
   xmlns:dc="http://purl.org/dc/elements/1.1/"
   xmlns:cc="http://creativecommons.org/ns#"
   xmlns:rdf="http://www.w3.org/1999/02/22-rdf-syntax-ns#"
   xmlns:svg="http://www.w3.org/2000/svg"
   xmlns="http://www.w3.org/2000/svg"
   id="Layer_1"
   data-name="Layer 1"
   viewBox="0 0 307.58444 94.759666"
   version="1.1"
   width="307.58444"
   height="94.759666">
  <metadata
     id="metadata49">
    <rdf:RDF>
      <cc:Work
         rdf:about="">
        <dc:format>image/svg+xml</dc:format>
        <dc:type
           rdf:resource="http://purl.org/dc/dcmitype/StillImage" />
      </cc:Work>
    </rdf:RDF>
  </metadata>
  <defs
     id="defs4">
    <style
       id="style2">.cls-1{fill:#2c2d7f;}.cls-2{fill:#d81b60;}</style>
  </defs>
  <title
     id="title6">97</title>
  <path
     class="cls-1"
     d="M 41.5,50.049666 H 14.81 l -4.38,9.63 H 0 L 22.9,8.6296662 H 33.4 L 56.3,59.679666 H 45.8 Z m -13.35,-30.7 -9.44,21.73 h 19 z"
     id="path8" />
  <path
     class="cls-1"
     d="m 64.54,23.729666 0.65,4.16 c 2.77,-4.45 6.49,-5.11 10.14,-5.11 a 13.63,13.63 0 0 1 9.26,3.43 l -4,7.73 a 8.89,8.89 0 0 0 -6.42,-2.33 c -4.67,0 -9,2.47 -9,9.11 v 19 H 56.3 v -36 z"
     id="path10" />
  <path
     class="cls-1"
     d="m 99.83,13.589666 v 10.21 h 9.88 v 7.66 h -10 v 15.53 c 0,3.43 1.9,5.11 4.67,5.11 a 10.08,10.08 0 0 0 4.3,-1.1 l 2.48,7.59 a 20,20 0 0 1 -7.36,1.53 c -7.8,0.29 -12.91,-4.16 -12.91,-13.13 v -15.53 h -6.71 v -7.66 h 6.71 v -9.26 z"
     id="path12" />
  <path
     class="cls-1"
     d="m 136.94,33.279666 a 12.14,12.14 0 0 0 -8.89,-3.21 c -4.23,0 -6.57,1.32 -6.57,3.58 0,2.26 2.12,3.64 6.71,3.93 6.78,0.44 15.39,2 15.39,11.53 0,6.34 -5.18,11.81 -15.46,11.81 -5.69,0 -11.38,-0.95 -16.63,-6.42 l 4.38,-6.34 c 2.55,2.84 8.38,5 12.39,5 3.36,0.07 6.49,-1.68 6.49,-4.3 0,-2.62 -2,-3.5 -7.14,-3.79 -6.78,-0.51 -14.88,-3 -14.88,-11.16 0,-8.16 8.61,-11.23 15.17,-11.23 5.61,0 9.84,1.09 14,4.74 z"
     id="path14" />
  <path
     class="cls-2"
     d="m 238.71,13.589666 c 0,6.93 -10.5,6.93 -10.5,0 0,-6.9299998 10.5,-6.9199998 10.5,0 z m -9.69,10 v 36.1 h 8.89 v -36.11 z"
     id="path16" />
  <path
     class="cls-2"
     d="m 251.28,23.729666 0.65,4.16 c 2.77,-4.45 6.49,-5.11 10.14,-5.11 a 13.63,13.63 0 0 1 9.26,3.43 l -4,7.73 a 8.91,8.91 0 0 0 -6.42,-2.33 c -4.67,0 -9,2.47 -9,9.11 v 19 h -8.89 v -36 z"
     id="path18" />
  <path
     class="cls-2"
     d="m 279.35,44.879666 c 0.58,4.44 4.45,7.65 10.72,7.65 3.28,0 7.58,-1.24 9.62,-3.35 l 5.69,5.61 c -3.79,3.94 -10,5.84 -15.46,5.84 -12.39,0 -19.76,-7.66 -19.76,-19.18 0,-10.94 7.44,-18.81 19.11,-18.81 12,0 19.54,7.43 18.15,22.24 z m 19.54,-7.37 c -0.58,-4.67 -4.23,-7 -9.33,-7 -4.82,0 -8.75,2.33 -10.07,7 z"
     id="path20" />
  <path
     class="cls-1"
     d="m 26.31,90.679666 a 14.19,14.19 0 0 1 -10.24,4 c -10,0 -14.25,-6.89 -14.29,-13.9 -0.04,-7.01 4.55,-14.21 14.29,-14.21 a 13.92,13.92 0 0 1 9.89,4.12 l -3.39,3.28 a 9.23,9.23 0 0 0 -6.5,-2.55 c -6.51,0 -9.32,4.85 -9.28,9.36 0.04,4.51 2.62,9.1 9.28,9.1 a 9.92,9.92 0 0 0 6.77,-2.73 z"
     id="path22" />
  <path
     class="cls-1"
     d="m 57.18,80.749666 c -0.07,7 -4.35,13.94 -13.82,13.94 -9.47,0 -13.86,-6.81 -13.86,-13.9 0,-7.09 4.55,-14.21 13.86,-14.21 9.31,0 13.9,7.13 13.82,14.17 z m -22.67,0.13 c 0.11,4.42 2.5,9.16 8.85,9.16 6.35,0 8.74,-4.77 8.82,-9.2 0.08,-4.43 -2.46,-9.63 -8.82,-9.63 -6.36,0 -8.97,5.11 -8.85,9.67 z"
     id="path24" />
  <path
     class="cls-1"
     d="m 88.95,80.749666 c -0.08,7 -4.35,13.94 -13.82,13.94 -9.47,0 -13.86,-6.81 -13.86,-13.9 0,-7.09 4.54,-14.21 13.86,-14.21 9.32,0 13.9,7.13 13.82,14.17 z m -22.68,0.12 c 0.12,4.42 2.51,9.16 8.86,9.16 6.35,0 8.74,-4.77 8.81,-9.2 0.07,-4.43 -2.46,-9.63 -8.81,-9.63 -6.35,0 -8.97,5.12 -8.86,9.68 z"
     id="path26" />
  <path
     class="cls-1"
     d="m 115.86,67.279666 -12,12.89 13,13.59 v 0.31 h -6.27 l -11.28,-11.93 v 11.93 h -5.08 v -26.95 h 5.08 v 11.4 l 10.24,-11.4 h 6.31 z"
     id="path28" />
  <path
     class="cls-1"
     d="m 130.34,94.069666 v -26.95 h 5 v 26.95 z"
     id="path30" />
  <path
     class="cls-1"
     d="m 159.1,73.629666 c -0.92,-1.54 -3.47,-3 -6.39,-3 -3.77,0 -5.58,1.57 -5.58,3.58 0,2.34 2.77,3 6,3.38 5.62,0.7 10.86,2.16 10.86,8.59 0,6 -5.31,8.58 -11.32,8.58 -5.51,0 -9.74,-1.69 -11.74,-6.62 l 4.23,-2.19 c 1.2,3 4.31,4.27 7.59,4.27 3.28,0 6.2,-1.12 6.2,-4 0,-2.54 -2.66,-3.58 -6.24,-4 -5.51,-0.65 -10.59,-2.11 -10.59,-8.16 0,-5.54 5.47,-7.81 10.43,-7.85 4.2,0 8.55,1.19 10.59,5.35 z"
     id="path32" />
  <path
     class="cls-1"
     d="m 174.54,67.119666 v 22.25 h 13.86 v 4.7 h -18.94 v -26.95 z"
     id="path34" />
  <path
     class="cls-1"
     d="m 212.65,88.989666 h -14.09 l -2.31,5.08 h -5.54 l 12.09,-26.95 h 5.54 l 12.09,26.95 h -5.54 z m -7,-16.21 -5,11.47 h 10 z"
     id="path36" />
  <path
     class="cls-1"
     d="m 242.03,67.079666 h 5.08 v 27 h -3.15 v 0 l -14.17,-18.2 v 18.17 h -5.08 v -26.93 h 4.12 l 13.2,16.76 z"
     id="path38" />
  <path
     class="cls-1"
     d="m 277.03,80.369666 c 0.11,6.81 -4,13.7 -13.48,13.7 h -10.58 v -26.95 h 10.58 c 9.24,0 13.36,6.59 13.48,13.25 z m -19,8.81 h 5.54 c 6.13,0 8.55,-4.46 8.44,-8.85 -0.12,-4.2 -2.58,-8.4 -8.44,-8.4 h -5.56 z"
     id="path40" />
  <path
     class="cls-1"
     d="m 298.55,73.629666 c -0.92,-1.54 -3.46,-3 -6.39,-3 -3.77,0 -5.58,1.57 -5.58,3.58 0,2.34 2.77,3 6,3.38 5.63,0.7 10.86,2.16 10.86,8.59 0,6 -5.31,8.58 -11.32,8.58 -5.5,0 -9.74,-1.69 -11.74,-6.62 l 4.24,-2.19 c 1.19,3 4.31,4.27 7.58,4.27 3.27,0 6.2,-1.12 6.2,-4 0,-2.54 -2.66,-3.58 -6.24,-4 -5.5,-0.65 -10.59,-2.11 -10.59,-8.16 0,-5.54 5.47,-7.81 10.44,-7.85 4.19,0 8.54,1.19 10.58,5.35 z"
     id="path42" />
  <path
     class="cls-2"
     d="m 169.71,52.999666 c 2.73,-2.94 5.18,-5.48 7.52,-8.13 2.34,-2.65 2.31,-2.75 0.31,-5.81 -4.59,-7.05 -7.47,-14.61 -6.53,-23.21 0.62,-5.57 2.48,-10.5299998 7.49,-13.6999998 a 14.09,14.09 0 0 1 20.21,5.9 18.37,18.37 0 0 1 1.26,12.1799998 45.42,45.42 0 0 1 -6.37,15.19 c -3.45,-1.61 -4.92,-6.62 -3.55,-10.53 a 41.17,41.17 0 0 0 2.22,-9.07 6.4,6.4 0 0 0 -4.66,-6.8699998 c -3.81,-0.84 -6.91,1.3099998 -7.83,5.3199998 a 20.89,20.89 0 0 0 2.35,16 c 4.16,6.72 8.91,13.09 13.45,19.58 a 18.43,18.43 0 0 0 2.26,2.19 c 1.25,-1.81 2.37,-3.42 3.49,-5 6.21,-8.9 9.18,-19 10.81,-29.56 0.82,-5.27 4.13,-6.55 8.46,-6.37 1.37,0.05 1.25,1.09 1.14,1.94 -0.53,4.13 -0.86,8.31 -1.77,12.37 a 66.51,66.51 0 0 1 -10.33,24.38 83.79,83.79 0 0 1 -7.2,8.65 c -2.62,2.8 -5.19,3.06 -8.16,0.56 -3.12,-2.63 -5.84,-5.74 -8.73,-8.64 -0.47,-0.47 -0.92,-1 -1.52,-1.6 -2.08,2.31 -4,4.55 -6,6.63 a 39.76,39.76 0 0 1 -4.9,4.37 c -2.91,2.14 -5.76,1.81 -8.26,-0.82 a 65.88,65.88 0 0 1 -16.16,-28.57 c -1.53,-5.71 -2.23,-11.64 -3.3,-17.48 -0.3,-1.64 0.43,-2.09 2,-2.08 4.95,0.05 7.61,2.65 8.36,8.67 1.26,10.24 5.36,19.41 10.42,28.23 1.02,1.65 2.13,3.16 3.52,5.28 z"
     id="path44" />
</svg>
