<?xml version="1.0" encoding="UTF-8" standalone="no"?>
<svg
   xmlns:dc="http://purl.org/dc/elements/1.1/"
   xmlns:cc="http://creativecommons.org/ns#"
   xmlns:rdf="http://www.w3.org/1999/02/22-rdf-syntax-ns#"
   xmlns:svg="http://www.w3.org/2000/svg"
   xmlns="http://www.w3.org/2000/svg"
   version="1.1"
   id="Layer_1"
   x="0px"
   y="0px"
   width="312.448"
   height="88.556999"
   viewBox="0 0 312.448 88.556999"
   enable-background="new 0 0 720 720"
   xml:space="preserve"><metadata
   id="metadata57"><rdf:RDF><cc:Work
       rdf:about=""><dc:format>image/svg+xml</dc:format><dc:type
         rdf:resource="http://purl.org/dc/dcmitype/StillImage" /></cc:Work></rdf:RDF></metadata><defs
   id="defs55" />
<g
   id="g50"
   transform="translate(-201.745,-318.475)">
	<g
   id="g10">
		<path
   fill="#f3c01f"
   d="m 218.01,319.648 c 1.509,0 2.626,1.006 3.354,3.018 0.195,0.392 0.698,2.012 1.509,4.863 0.307,0 0.698,1.454 1.174,4.36 0.391,0 1.006,3.074 1.844,9.222 l 0.838,4.024 c 0,1.901 0.503,4.975 1.509,9.223 0,0.754 0.894,5.338 2.683,13.75 0,0.531 0.224,1.369 0.671,2.515 0.335,0.587 0.614,1.929 0.838,4.024 1.229,2.236 1.844,3.521 1.844,3.856 v 0.503 c 0,1.537 -1.006,2.432 -3.018,2.683 -0.419,0.335 -0.922,0.503 -1.509,0.503 h -1.509 c -1.565,0 -2.963,-2.067 -4.192,-6.203 -0.308,-0.643 -0.979,-2.99 -2.012,-7.043 -0.112,-0.195 -0.168,-0.42 -0.168,-0.671 h -0.167 c -4.863,0.587 -7.434,0.979 -7.713,1.174 -0.251,0.251 -1.649,0.531 -4.192,0.839 l -1.509,6.875 c -0.951,3.688 -2.012,5.533 -3.186,5.533 h -0.671 c -1.481,0 -2.375,-0.951 -2.683,-2.852 1.453,-4.415 2.18,-7.32 2.18,-8.719 -1.118,-0.391 -1.677,-1.174 -1.677,-2.348 v -0.168 c 0,-1.313 0.95,-2.318 2.851,-3.018 0.866,-4.136 2.152,-8.943 3.856,-14.42 0.447,-3.27 1.006,-5.45 1.677,-6.54 0,-0.67 0.447,-2.794 1.342,-6.372 1.117,-2.626 2.012,-6.26 2.683,-10.899 0.447,-4.471 0.95,-6.708 1.509,-6.708 0.223,-0.361 0.838,-0.696 1.844,-1.004 z m -1.509,22.637 c -0.559,3.074 -1.118,5.254 -1.677,6.539 0,1.565 -1.118,5.869 -3.354,12.911 0,0.364 -0.224,1.314 -0.67,2.852 h 0.335 c 1.285,-0.447 4.248,-0.95 8.887,-1.51 0,-0.363 -0.671,-4.834 -2.012,-13.414 0,-0.643 -0.335,-2.375 -1.006,-5.198 -0.224,-0.727 -0.335,-1.453 -0.335,-2.18 z"
   id="path2" />
		<path
   fill="#f3c01f"
   d="m 258.361,337.841 h 0.167 c 2.012,0.364 3.018,1.314 3.018,2.851 v 1.341 c -0.727,2.012 -1.565,3.019 -2.515,3.019 -2.404,0.838 -4.416,2.012 -6.036,3.521 -0.838,0.783 -1.845,2.851 -3.019,6.204 0.111,0.754 0.168,1.37 0.168,1.845 v 1.173 c 0.335,1.034 0.614,2.432 0.838,4.192 v 13.246 c -0.699,3.02 -1.873,4.527 -3.521,4.527 h -1.509 c -1.538,0 -2.432,-1.006 -2.683,-3.018 -0.28,0 -0.503,-3.129 -0.67,-9.391 -0.196,-0.362 -0.419,-2.207 -0.671,-5.533 v -12.575 c -0.335,-3.577 -0.671,-5.98 -1.006,-7.21 v -0.503 c 0,-1.788 1.173,-2.683 3.521,-2.683 1.677,0 3.186,1.286 4.527,3.856 0.223,0.838 0.335,1.341 0.335,1.509 2.18,-2.403 4.359,-4.248 6.54,-5.534 1.146,-0.557 1.985,-0.837 2.516,-0.837 z"
   id="path4" />
		<path
   fill="#f3c01f"
   d="m 275.852,325.768 c 2.012,0 3.354,1.063 4.024,3.186 0,0.14 0.168,1.034 0.503,2.683 v 4.527 c 0,1.845 0.111,4.416 0.335,7.713 l 0.335,0.167 h 3.354 c 2.571,0 3.856,0.895 3.856,2.683 v 0.167 c -0.196,1.677 -1.034,2.515 -2.515,2.515 h -4.359 v 0.168 c 0.111,6.009 0.167,9.53 0.167,10.563 0.224,0.727 0.335,1.23 0.335,1.509 v 3.688 l 0.671,5.869 c 0,0.587 0.782,1.593 2.347,3.018 h 1.342 c 2.571,0 3.856,0.895 3.856,2.684 v 0.168 c -0.196,1.676 -1.034,2.515 -2.515,2.515 h -1.677 c -4.136,0 -6.204,-0.335 -6.204,-1.007 -0.643,0 -1.817,-0.781 -3.521,-2.347 -0.95,-1.369 -1.733,-3.271 -2.347,-5.701 -0.447,-3.381 -0.727,-6.511 -0.838,-9.39 -0.28,-0.252 -0.503,-3.046 -0.671,-8.384 -0.112,0 -0.167,-0.503 -0.167,-1.509 v -1.342 h -3.521 c -1.677,-0.195 -2.515,-1.033 -2.515,-2.515 v -0.167 c 0,-1.788 1.174,-2.683 3.521,-2.683 h 2.515 V 329.29 c 0.475,-2.348 1.648,-3.521 3.521,-3.521 h 0.168 z"
   id="path6" />
		<path
   fill="#f3c01f"
   d="m 307.845,335.074 h 0.335 c 3.577,0 5.924,1.118 7.042,3.354 0.95,1.09 1.565,2.488 1.844,4.192 v 1.677 c -0.196,1.677 -1.034,2.515 -2.515,2.515 h -0.167 c -1.789,0 -2.683,-1.229 -2.683,-3.688 -0.866,-1.789 -1.705,-2.683 -2.515,-2.683 h -1.844 c -0.699,0.419 -1.593,0.811 -2.683,1.174 -0.811,0.615 -1.258,1.174 -1.342,1.677 -0.67,0.363 -1.006,1.537 -1.006,3.521 1.006,2.404 2.068,4.472 3.186,6.204 0.223,0.503 1.285,1.677 3.186,3.521 3.102,3.913 4.89,6.036 5.366,6.371 1.034,1.342 2.04,3.354 3.018,6.037 0.671,1.258 1.006,2.543 1.006,3.856 v 3.856 c 0,1.034 -1.341,2.543 -4.024,4.527 -1.09,0.447 -3.046,0.782 -5.869,1.006 h -2.348 c -1.509,-0.195 -3.018,-1.09 -4.527,-2.683 -0.559,-0.111 -1.286,-1.341 -2.18,-3.688 -0.67,-0.811 -1.006,-1.816 -1.006,-3.019 0,-1.313 0.838,-2.097 2.515,-2.348 h 0.167 c 1.593,0 2.822,1.454 3.689,4.36 0.95,1.341 1.845,2.012 2.683,2.012 2.571,0 3.856,-0.615 3.856,-1.845 v -1.677 c -0.727,-1.62 -2.459,-3.744 -5.198,-6.371 -0.587,-1.063 -1.984,-2.571 -4.192,-4.527 -2.711,-3.549 -4.667,-6.567 -5.869,-9.055 -0.224,-0.754 -0.335,-1.425 -0.335,-2.012 v -5.03 c 0,-1.956 0.95,-4.024 2.851,-6.204 1.341,-1.816 2.906,-3.045 4.695,-3.689 1.594,-0.894 3.215,-1.341 4.864,-1.341 z"
   id="path8" />
	</g>
	<g
   id="g14">
		<path
   fill="#4377bc"
   d="m 348.228,319.648 c 1.9,0.308 2.851,1.202 2.851,2.683 v 0.168 c -0.28,1.789 -1.174,2.683 -2.683,2.683 H 343.7 v 3.186 c 0,1.537 -0.224,4.5 -0.671,8.887 -0.112,22.078 -0.167,35.381 -0.167,39.908 0,2.682 -1.398,4.023 -4.192,4.023 h -0.838 c -2.572,-0.336 -3.857,-1.174 -3.857,-2.516 -0.112,-0.446 -0.167,-0.894 -0.167,-1.341 v -7.714 c 0,-6.203 0.167,-10.787 0.503,-13.749 v -1.174 c 0,-0.782 0.111,-4.527 0.335,-11.234 v -13.414 c 0,-0.95 0.167,-2.18 0.503,-3.689 v -0.838 h -2.683 c -1.146,0.335 -2.152,0.503 -3.019,0.503 -1.09,0 -1.873,-0.894 -2.347,-2.683 0,-2.235 2.515,-3.354 7.545,-3.354 0,-0.111 0.503,-0.168 1.509,-0.168 h 11.905 c 0.112,0 0.169,-0.055 0.169,-0.167 z"
   id="path12" />
	</g>
	<g
   id="g22">
		<path
   fill="#4377bc"
   d="m 443.505,379.844 h -0.335 c -2.068,0 -3.466,-1.844 -4.191,-5.533 -2.264,2.684 -4.221,4.192 -5.869,4.527 -0.447,0.225 -1.063,0.336 -1.845,0.336 h -1.174 c -1.845,0 -3.13,-0.279 -3.856,-0.839 -1.789,-1.117 -3.018,-2.851 -3.689,-5.198 -0.586,-1.425 -1.146,-3.884 -1.676,-7.377 v -5.869 c 0.223,-5.002 0.727,-8.691 1.509,-11.067 0.111,0 0.503,-0.894 1.173,-2.683 1.762,-3.577 4.444,-5.98 8.049,-7.21 0,-0.363 1.9,-0.754 5.701,-1.173 0,-1.258 0.224,-2.655 0.671,-4.192 v -11.57 c 0,-2.348 0.894,-3.521 2.683,-3.521 h 1.51 c 2.459,0.476 3.688,1.258 3.688,2.348 0.224,0 0.335,2.068 0.335,6.204 v 4.863 c 0,0.643 -0.224,2.096 -0.67,4.359 0.111,6.093 0.168,10.956 0.168,14.588 0.446,2.543 0.977,9.083 1.592,19.618 0.084,1.538 0.168,3.605 0.252,6.204 0,0.671 -0.377,1.369 -1.132,2.096 -0.756,0.726 -1.72,1.089 -2.894,1.089 z m -11.737,-6.371 c 1.453,-0.559 3.577,-2.851 6.372,-6.875 0,-0.363 -0.168,-1.809 -0.503,-4.338 -0.336,-2.53 -0.504,-4.772 -0.504,-6.729 v -12.073 c -0.251,0 -0.475,-0.056 -0.67,-0.167 -2.125,0.196 -3.186,0.699 -3.186,1.509 -0.615,0 -1.398,1.733 -2.348,5.198 -0.363,0 -0.699,3.242 -1.006,9.726 v 11.234 c 0.726,1.677 1.342,2.515 1.845,2.515 z"
   id="path16" />
		<path
   fill="#4377bc"
   d="m 468.137,337.589 c 4.416,0 7.211,1.286 8.385,3.857 1.564,1.453 2.348,3.298 2.348,5.533 0.111,0 0.168,0.224 0.168,0.67 v 3.019 l 1.174,9.39 v 2.515 c 0,0.168 0.111,1.509 0.334,4.024 v 1.51 c 0,2.319 0.111,5.841 0.336,10.563 -0.643,1.789 -1.705,2.684 -3.186,2.684 h -1.342 c -2.123,-0.56 -3.186,-1.285 -3.186,-2.18 -2.32,1.342 -3.717,2.012 -4.191,2.012 h -3.689 c -3.215,0 -5.114,-0.336 -5.701,-1.006 -1.481,-1.845 -2.432,-3.633 -2.851,-5.365 -0.224,0 -0.503,-1.063 -0.839,-3.187 0,-3.549 0.672,-6.623 2.013,-9.222 2.487,-2.991 4.722,-4.723 6.708,-5.199 0.949,-0.67 2.457,-1.006 4.527,-1.006 h 2.012 l 0.838,0.167 c -0.559,-7.461 -1.398,-11.765 -2.516,-12.911 0,-0.167 -0.168,-0.335 -0.502,-0.503 h -0.336 c -1.063,0.196 -2.516,0.699 -4.359,1.509 -0.561,0 -1.566,0.783 -3.019,2.347 -0.419,0.335 -0.923,0.503 -1.509,0.503 h -0.168 c -1.342,0 -2.236,-0.838 -2.683,-2.515 v -0.168 c 0,-2.096 2.515,-4.164 7.546,-6.204 1.649,-0.557 2.877,-0.837 3.688,-0.837 z m -5.867,28.338 v 1.342 c -0.225,1.621 -0.336,2.515 -0.336,2.683 v 0.168 c 0,2.012 0.67,3.633 2.012,4.862 0.363,0 0.922,0.28 1.678,0.839 h 1.844 c 0.838,0 2.516,-1.117 5.031,-3.354 v -0.839 c -0.252,-4.304 -0.477,-7.546 -0.672,-9.726 -0.727,-0.223 -1.23,-0.335 -1.508,-0.335 h -1.008 c -2.236,0 -4.416,1.174 -6.539,3.521 -10e-4,0.197 -0.168,0.476 -0.502,0.839 z"
   id="path18" />
		<path
   fill="#4377bc"
   d="m 492.809,397.953 c -1.314,0 -2.193,-0.866 -2.641,-2.599 v -0.251 c 0,-1.174 0.684,-2.152 2.055,-2.936 0,-0.418 1.047,-1.299 3.143,-2.641 2.543,-1.453 4.779,-5.31 6.707,-11.569 0.475,-2.599 1.035,-4.499 1.678,-5.701 0.084,-0.167 0.125,-0.308 0.125,-0.419 v -0.084 c -1.844,-1.033 -3.172,-2.152 -3.982,-3.354 -0.949,-0.279 -2.334,-1.942 -4.15,-4.988 -0.223,0 -0.768,-0.965 -1.635,-2.893 -0.697,-1.09 -1.998,-3.675 -3.898,-7.755 l -2.305,-5.156 c -0.027,-0.335 -0.461,-1.425 -1.299,-3.27 0.223,-1.956 1.174,-2.934 2.85,-2.934 1.537,0 2.627,1.244 3.27,3.73 1.678,3.382 2.529,5.38 2.557,5.995 0.309,0.14 1.398,2.292 3.27,6.456 0.252,0.112 0.924,1.286 2.014,3.521 0.111,0.028 0.684,0.824 1.719,2.39 0.139,0 1.047,0.754 2.725,2.264 h 0.168 v -0.043 c 0,-0.529 0.391,-2.515 1.174,-5.952 0.055,-4.331 0.18,-7.321 0.377,-8.971 -0.279,-3.213 -0.42,-5.072 -0.42,-5.575 0,-2.683 0.699,-4.527 2.096,-5.533 0.699,-0.447 1.383,-0.671 2.055,-0.671 1.621,0 2.57,1.425 2.85,4.276 0.588,6.903 0.881,10.969 0.881,12.199 0,3.326 -0.336,7.07 -1.006,11.234 -0.811,3.27 -1.342,6.735 -1.594,10.396 -1.396,4.527 -2.598,7.393 -3.604,8.594 -0.42,1.984 -2.488,4.527 -6.205,7.629 -1.648,1.984 -4.15,3.493 -7.504,4.527 z"
   id="path20" />
	</g>
	<g
   id="g38">
		<path
   fill="#4377bc"
   d="m 268.539,396.366 c 0,-3.466 0,-4.088 -0.044,-4.799 -0.044,-0.756 -0.222,-1.111 -0.955,-1.267 -0.178,-0.045 -0.556,-0.066 -0.756,-0.066 -0.089,0 -0.178,-0.045 -0.178,-0.134 0,-0.133 0.111,-0.178 0.355,-0.178 1,0 2.399,0.067 2.511,0.067 0.267,0 1.666,-0.067 2.999,-0.067 2.2,0 6.266,-0.2 8.909,2.533 1.111,1.155 2.155,2.999 2.155,5.643 0,2.8 -1.155,4.955 -2.399,6.266 -0.956,1 -2.955,2.555 -6.732,2.555 -0.956,0 -2.133,-0.066 -3.088,-0.133 -0.978,-0.067 -1.732,-0.134 -1.844,-0.134 -0.044,0 -0.422,0 -0.889,0.022 -0.444,0 -0.955,0.044 -1.289,0.044 -0.245,0 -0.355,-0.044 -0.355,-0.178 0,-0.066 0.044,-0.133 0.178,-0.133 0.2,0 0.466,-0.045 0.667,-0.089 0.444,-0.089 0.556,-0.578 0.645,-1.223 0.111,-0.933 0.111,-2.688 0.111,-4.82 v -3.909 z m 1.866,2.4 c 0,2.354 0.022,4.398 0.044,4.821 0.022,0.555 0.066,1.443 0.244,1.688 0.289,0.423 1.155,0.889 3.777,0.889 2.066,0 3.977,-0.755 5.287,-2.065 1.155,-1.134 1.777,-3.267 1.777,-5.31 0,-2.822 -1.222,-4.644 -2.133,-5.599 -2.088,-2.2 -4.621,-2.511 -7.265,-2.511 -0.444,0 -1.267,0.066 -1.444,0.155 -0.2,0.089 -0.267,0.2 -0.267,0.444 -0.022,0.755 -0.022,3.021 -0.022,4.732 v 2.756 z"
   id="path24" />
		<path
   fill="#4377bc"
   d="m 294.917,396.366 c 0,-3.466 0,-4.088 -0.044,-4.799 -0.044,-0.756 -0.222,-1.111 -0.956,-1.267 -0.178,-0.045 -0.555,-0.066 -0.755,-0.066 -0.089,0 -0.178,-0.045 -0.178,-0.134 0,-0.133 0.111,-0.178 0.355,-0.178 1,0 2.399,0.067 2.51,0.067 0.245,0 1.933,-0.067 2.622,-0.067 1.399,0 2.888,0.134 4.065,0.978 0.556,0.4 1.533,1.488 1.533,3.021 0,1.645 -0.688,3.288 -2.688,5.132 1.822,2.333 3.333,4.311 4.621,5.688 1.2,1.267 2.155,1.512 2.711,1.6 0.422,0.067 0.733,0.067 0.866,0.067 0.111,0 0.2,0.066 0.2,0.133 0,0.134 -0.134,0.178 -0.533,0.178 h -1.578 c -1.244,0 -1.799,-0.11 -2.377,-0.422 -0.955,-0.511 -1.732,-1.6 -2.999,-3.266 -0.933,-1.222 -1.978,-2.711 -2.422,-3.288 -0.089,-0.089 -0.155,-0.134 -0.289,-0.134 l -2.733,-0.044 c -0.111,0 -0.155,0.066 -0.155,0.178 v 0.533 c 0,2.133 0,3.888 0.111,4.82 0.066,0.645 0.2,1.134 0.866,1.223 0.311,0.044 0.8,0.089 1,0.089 0.133,0 0.178,0.066 0.178,0.133 0,0.111 -0.111,0.178 -0.355,0.178 -1.222,0 -2.622,-0.066 -2.733,-0.066 -0.022,0 -1.422,0.066 -2.088,0.066 -0.244,0 -0.355,-0.044 -0.355,-0.178 0,-0.066 0.044,-0.133 0.178,-0.133 0.2,0 0.467,-0.045 0.667,-0.089 0.444,-0.089 0.555,-0.578 0.644,-1.223 0.111,-0.933 0.111,-2.688 0.111,-4.82 z m 1.778,1.933 c 0,0.111 0.044,0.2 0.155,0.267 0.333,0.2 1.355,0.355 2.333,0.355 0.533,0 1.155,-0.066 1.666,-0.422 0.778,-0.533 1.355,-1.733 1.355,-3.422 0,-2.776 -1.466,-4.443 -3.844,-4.443 -0.666,0 -1.266,0.067 -1.488,0.134 -0.111,0.044 -0.178,0.133 -0.178,0.267 v 7.264 z"
   id="path26" />
		<path
   fill="#4377bc"
   d="m 331.496,404.631 c -2.155,-1.933 -2.688,-4.466 -2.688,-6.576 0,-1.488 0.511,-4.088 2.488,-6.065 1.333,-1.333 3.355,-2.377 6.776,-2.377 0.889,0 2.133,0.066 3.222,0.267 0.844,0.155 1.555,0.289 2.266,0.333 0.245,0.022 0.289,0.111 0.289,0.244 0,0.178 -0.066,0.444 -0.111,1.244 -0.044,0.733 -0.044,1.955 -0.067,2.288 -0.022,0.334 -0.066,0.467 -0.2,0.467 -0.156,0 -0.178,-0.155 -0.178,-0.467 0,-0.866 -0.355,-1.777 -0.933,-2.266 -0.777,-0.666 -2.488,-1.267 -4.443,-1.267 -2.955,0 -4.332,0.866 -5.11,1.622 -1.622,1.555 -2,3.532 -2,5.799 0,4.243 3.266,8.131 8.021,8.131 1.666,0 2.977,-0.2 3.865,-1.11 0.467,-0.489 0.756,-1.467 0.822,-1.866 0.044,-0.245 0.089,-0.333 0.222,-0.333 0.111,0 0.156,0.155 0.156,0.333 0,0.155 -0.267,2.088 -0.489,2.844 -0.133,0.422 -0.178,0.466 -0.577,0.644 -0.889,0.355 -2.577,0.512 -3.999,0.512 -3.333,-0.002 -5.577,-0.824 -7.332,-2.401 z"
   id="path28" />
		<path
   fill="#4377bc"
   d="m 361.45,389.612 c 4.999,0 8.731,3.154 8.731,8.331 0,4.977 -3.51,9.087 -8.865,9.087 -6.087,0 -8.62,-4.732 -8.62,-8.731 10e-4,-3.6 2.622,-8.687 8.754,-8.687 z m 0.466,16.574 c 2,0 6.133,-1.155 6.133,-7.62 0,-5.332 -3.244,-8.198 -6.754,-8.198 -3.71,0 -6.488,2.444 -6.488,7.31 0,5.176 3.11,8.508 7.109,8.508 z"
   id="path30" />
		<path
   fill="#4377bc"
   d="m 381.719,403.697 c 0.045,1.822 0.266,2.399 0.866,2.577 0.423,0.111 0.911,0.134 1.11,0.134 0.111,0 0.178,0.044 0.178,0.133 0,0.134 -0.133,0.178 -0.399,0.178 -1.267,0 -2.155,-0.066 -2.354,-0.066 -0.201,0 -1.133,0.066 -2.133,0.066 -0.223,0 -0.355,-0.022 -0.355,-0.178 0,-0.089 0.066,-0.133 0.178,-0.133 0.178,0 0.577,-0.022 0.91,-0.134 0.556,-0.155 0.666,-0.8 0.666,-2.821 l 0.023,-12.73 c 0,-0.866 0.066,-1.11 0.244,-1.11 0.178,0 0.555,0.488 0.777,0.711 0.334,0.378 3.644,3.954 7.064,7.62 2.199,2.354 4.621,5.065 5.332,5.799 l -0.244,-11.286 c -0.021,-1.444 -0.178,-1.933 -0.866,-2.11 -0.399,-0.09 -0.911,-0.111 -1.089,-0.111 -0.155,0 -0.178,-0.066 -0.178,-0.156 0,-0.133 0.178,-0.155 0.445,-0.155 0.999,0 2.065,0.067 2.311,0.067 0.244,0 0.977,-0.067 1.888,-0.067 0.245,0 0.399,0.022 0.399,0.155 0,0.09 -0.088,0.156 -0.244,0.156 -0.111,0 -0.266,0 -0.533,0.066 -0.732,0.155 -0.822,0.645 -0.822,1.978 l -0.044,13.019 c 0,1.467 -0.044,1.577 -0.2,1.577 -0.178,0 -0.443,-0.244 -1.621,-1.422 -0.244,-0.222 -3.443,-3.487 -5.799,-6.021 -2.578,-2.777 -5.088,-5.576 -5.799,-6.376 z"
   id="path32" />
		<path
   fill="#4377bc"
   d="m 418.605,401.054 c 0,-1.8 -0.111,-2.044 -1,-2.288 -0.178,-0.045 -0.555,-0.067 -0.755,-0.067 -0.089,0 -0.178,-0.044 -0.178,-0.133 0,-0.133 0.11,-0.178 0.355,-0.178 0.999,0 2.399,0.066 2.511,0.066 0.112,0 1.51,-0.066 2.178,-0.066 0.244,0 0.355,0.045 0.355,0.178 0,0.089 -0.09,0.133 -0.178,0.133 -0.156,0 -0.289,0.022 -0.557,0.067 -0.6,0.11 -0.777,0.488 -0.822,1.267 -0.043,0.711 -0.043,1.377 -0.043,2.311 v 2.488 c 0,0.999 -0.023,1.044 -0.289,1.199 -1.422,0.756 -3.422,1 -4.711,1 -1.688,0 -4.843,-0.223 -7.309,-2.377 -1.355,-1.178 -2.645,-3.555 -2.645,-6.332 0,-3.555 1.733,-6.065 3.711,-7.31 2,-1.244 4.199,-1.399 5.91,-1.399 1.398,0 2.977,0.288 3.398,0.378 0.467,0.11 1.244,0.199 1.799,0.222 0.223,0.022 0.268,0.111 0.268,0.2 0,0.311 -0.156,0.933 -0.156,3.154 0,0.355 -0.044,0.467 -0.199,0.467 -0.111,0 -0.133,-0.133 -0.156,-0.333 -0.021,-0.312 -0.133,-0.934 -0.467,-1.467 -0.555,-0.844 -2.354,-1.8 -5.221,-1.8 -1.398,0 -3.065,0.134 -4.754,1.467 -1.289,1.021 -2.199,3.044 -2.199,5.644 0,3.132 1.577,5.398 2.355,6.153 1.754,1.711 3.775,2.378 5.82,2.378 0.799,0 1.955,-0.134 2.533,-0.467 0.288,-0.156 0.443,-0.4 0.443,-0.777 v -3.778 z"
   id="path34" />
		<path
   fill="#4377bc"
   d="m 439.651,389.612 c 4.999,0 8.731,3.154 8.731,8.331 0,4.977 -3.51,9.087 -8.865,9.087 -6.087,0 -8.619,-4.732 -8.619,-8.731 0,-3.6 2.622,-8.687 8.753,-8.687 z m 0.466,16.574 c 2,0 6.133,-1.155 6.133,-7.62 0,-5.332 -3.244,-8.198 -6.754,-8.198 -3.711,0 -6.488,2.444 -6.488,7.31 0,5.176 3.111,8.508 7.109,8.508 z"
   id="path36" />
	</g>
	<g
   id="g48">
		<path
   fill="#4377bc"
   d="m 415.65,347.451 -49.027,29.393 c 4.545,3.043 9.922,4.938 15.717,5.271 h 3.693 c 16.602,-0.955 29.77,-14.72 29.77,-31.561 0,-1.048 -0.053,-2.082 -0.153,-3.103 z m -29.617,-28.458 h -3.693 c -16.6,0.957 -29.769,14.72 -29.769,31.561 0,4.976 1.15,9.683 3.199,13.87 l 54.021,-32.417 c -5.408,-7.453 -13.988,-12.451 -23.758,-13.014 z"
   id="path40" />
		<path
   fill="#f3c01f"
   d="m 409.791,332.006 -54.021,32.417 c 2.463,5.038 6.226,9.323 10.853,12.42 L 415.65,347.45 c -0.558,-5.735 -2.65,-11.021 -5.859,-15.444 z"
   id="path42" />
		<path
   fill="#ce2027"
   d="m 411.283,334.266 -54.216,32.535 c 1.902,3.172 4.343,5.98 7.2,8.301 l 50.961,-30.553 c -0.71,-3.698 -2.066,-7.165 -3.945,-10.283 z"
   id="path44" />
		<polygon
   fill="#f3c01f"
   points="379.738,333.096 373.203,338.034 375.699,346.025 369.164,341.086 362.629,346.025 365.125,338.034 358.589,333.096 366.666,333.096 369.164,325.105 371.66,333.096 "
   id="polygon46" />
	</g>
</g>
</svg>
