<svg width="192" height="38" viewBox="0 0 192 38" fill="none" xmlns="http://www.w3.org/2000/svg">
<path d="M169.208 9.85755L177.852 19.8433V25.123H182.575V19.8433L191.346 9.85755H184.875L180.916 14.8646C180.662 15.1929 180.495 15.6055 180.425 16.1023C180.354 16.6187 180.303 16.8741 180.27 16.8741C180.216 16.5738 180.151 16.2314 180.083 15.8468C179.993 15.4623 179.843 15.1339 179.632 14.8646L175.673 9.85755H169.208ZM148.782 13.7952V9.84064H167.072V13.7952H160.306V25.1256H155.576V13.7952H148.782ZM140.745 25.1483V9.8884H145.474V25.1483H140.745ZM136.874 9.88561H132.144V20.3993C132.263 20.7976 132.372 21.1881 132.488 21.575C132.488 21.718 132.492 21.8618 132.506 22.0021C132.409 22.0021 132.316 21.9088 132.229 21.7241C132.13 21.5384 132.04 21.3511 131.949 21.168L123.868 9.88273H116.131V25.1422H120.86V14.6035C120.86 14.5895 120.738 14.1965 120.499 13.4247C120.485 13.2872 120.476 13.1469 120.476 13.0038C120.572 13.0038 120.674 13.0964 120.772 13.2788C120.863 13.478 120.947 13.6633 121.029 13.8345L129.133 25.1422H136.871V9.88561H136.874ZM107.662 25.1483V9.8884H112.392V25.1483H107.662ZM88.082 25.1256V9.84064H104.508V13.7952H92.8112V16.425H103.864V20.3793H92.8112V25.1256H88.082ZM68.3069 25.1256V9.84064H84.7325V13.7952H73.0362V16.425H84.0891V20.3793H73.0362V25.1256H68.3069ZM54.6833 13.3041H53.9524L51.3902 18.6284H57.237L54.6833 13.3041ZM50.2502 9.85755H58.3741L65.9845 25.1256H60.4651L59.0006 22.5825H49.6294L48.1706 25.1256H42.6427L50.2502 9.85755Z" fill="#B9065D"/>
<path d="M184.828 33.8495H189.159C189.154 34.8555 189.119 35.507 189.058 35.8091C188.99 36.1421 188.884 36.3943 188.737 36.5604C188.591 36.7291 188.371 36.8625 188.07 36.9597C187.664 37.0897 186.75 37.1534 185.33 37.1534C183.99 37.1534 183.044 37.1121 182.489 37.026C182.005 36.9485 181.657 36.7429 181.44 36.4055C181.198 36.0285 181.077 35.1912 181.077 33.8917C181.077 32.9906 181.145 32.2892 181.274 31.7823C181.401 31.3055 181.699 30.9897 182.171 30.8399C182.644 30.6902 183.57 30.6153 184.955 30.6153C185.408 30.6153 185.92 30.6265 186.486 30.6515C187.051 30.6764 187.44 30.7014 187.645 30.7289C188.067 30.7874 188.411 30.9484 188.676 31.2117C188.833 31.3752 188.946 31.5603 189.008 31.7737C189.072 31.9871 189.109 32.2892 189.114 32.6747H188.205C188.194 32.1678 188.123 31.852 187.991 31.7212C187.904 31.6412 187.783 31.5775 187.623 31.5413C187.465 31.5026 187.214 31.4716 186.868 31.4441C186.396 31.414 185.808 31.3967 185.104 31.3967C184.178 31.3967 183.514 31.4217 183.109 31.469C182.701 31.5164 182.431 31.6024 182.301 31.7272C182.18 31.8408 182.095 32.0482 182.048 32.3426C182 32.6386 181.977 33.1154 181.977 33.7669C181.977 34.7419 182.017 35.3822 182.099 35.6843C182.15 35.8676 182.231 36.0001 182.341 36.0862C182.45 36.1723 182.614 36.2334 182.833 36.2695C183.264 36.3358 184.209 36.3693 185.667 36.3693C186.472 36.3693 187.068 36.3358 187.451 36.2721C187.8 36.2136 188.019 36.0922 188.115 35.9003C188.211 35.7093 188.261 35.2772 188.273 34.6034H184.828V33.8495ZM169.806 30.6403H171.275L177.056 36.347H177.258V30.6403H178.139V37.1482H176.648L170.881 31.4604H170.687V37.1482H169.806V30.6403ZM165.858 30.6403H166.739V37.1482H165.858V30.6403ZM154.936 30.6403H155.817V33.3925H161.89V30.6403H162.771V37.1482H161.89V34.1516H155.817V37.1482H154.936V30.6403ZM144.754 35.1077H145.61C145.61 35.18 145.613 35.2299 145.616 35.2523C145.621 35.6206 145.649 35.865 145.694 35.9898C145.743 36.1137 145.844 36.211 146.001 36.2773C146.246 36.3831 147.051 36.4356 148.407 36.4356C149.393 36.4356 150.099 36.3883 150.526 36.2919C150.948 36.1998 151.16 35.8762 151.16 35.3271C151.16 35.0475 151.126 34.8366 151.058 34.6955C150.991 34.5535 150.876 34.4536 150.712 34.3985C150.546 34.34 150.315 34.3073 150.02 34.2987C149.721 34.2875 148.759 34.285 147.129 34.285C146.581 34.285 146.145 34.235 145.812 34.1352C145.483 34.0354 145.23 33.8744 145.053 33.6584C144.842 33.3985 144.74 33.0018 144.74 32.4725C144.74 31.8847 144.906 31.4604 145.238 31.1979C145.399 31.0645 145.579 30.9673 145.776 30.901C145.973 30.8348 146.249 30.7814 146.603 30.7375C147.186 30.6678 147.881 30.6325 148.683 30.6325C149.429 30.6325 150.003 30.6712 150.411 30.7461C150.816 30.821 151.132 30.9484 151.36 31.1282C151.545 31.278 151.672 31.4527 151.742 31.6523C151.812 31.852 151.849 32.1592 151.854 32.5749H150.973V32.4751C150.973 32.1592 150.94 31.9458 150.867 31.8374C150.763 31.6687 150.537 31.5499 150.191 31.4751C149.845 31.4028 149.331 31.3666 148.644 31.3666C147.791 31.3666 147.149 31.4002 146.721 31.4639C146.297 31.5276 146.006 31.63 145.855 31.7771C145.715 31.9157 145.641 32.1481 145.641 32.4699C145.641 32.7608 145.674 32.9682 145.748 33.093C145.819 33.2178 145.959 33.3125 146.165 33.3761C146.465 33.47 147.043 33.5224 147.895 33.5285C148.185 33.5311 148.905 33.5336 150.048 33.5371C150.521 33.5397 150.887 33.587 151.14 33.6696C151.393 33.7557 151.602 33.9054 151.762 34.1128C151.962 34.3796 152.063 34.7617 152.063 35.2574C152.063 35.7291 151.981 36.1034 151.818 36.3745C151.621 36.6904 151.255 36.9038 150.721 37.0148C150.186 37.1232 149.229 37.1757 147.844 37.1757C147.113 37.1757 146.573 37.1534 146.223 37.1121C145.877 37.0699 145.602 36.9924 145.399 36.8762C145.154 36.7403 144.985 36.5656 144.89 36.3556C144.797 36.1447 144.749 35.8315 144.749 35.4098C144.749 35.3796 144.752 35.2824 144.754 35.1077ZM140.983 30.6403H141.864V37.1482H140.983V30.6403ZM132.304 30.6403H133.189V36.3857H138.398V37.1482H132.304V30.6403ZM122.641 36.3857H126.142C126.831 36.3857 127.318 36.3693 127.602 36.3306C127.886 36.2945 128.095 36.2222 128.227 36.1198C128.396 35.9812 128.483 35.7015 128.483 35.2884C128.483 34.8418 128.387 34.5535 128.199 34.4209C128.067 34.3237 127.915 34.2686 127.74 34.2488C127.566 34.2325 127.034 34.2161 126.142 34.2015H122.641V36.3857ZM122.638 33.4398H126.142C126.727 33.4398 127.127 33.4286 127.343 33.4088C127.56 33.3873 127.726 33.3426 127.844 33.2763C128.092 33.1378 128.216 32.8495 128.216 32.42C128.216 32.0095 128.131 31.7384 127.96 31.6076C127.85 31.525 127.715 31.4716 127.549 31.4527C127.383 31.4363 126.916 31.4165 126.139 31.4002H122.638V33.4398ZM121.76 37.1482V30.6403H126.144C126.944 30.654 127.442 30.6678 127.642 30.6824C128.266 30.7349 128.697 30.9759 128.936 31.4028C129.057 31.6214 129.119 31.9234 129.119 32.309C129.119 32.7333 129.06 33.0465 128.942 33.2539C128.824 33.4622 128.612 33.6171 128.306 33.7256C128.7 33.7892 128.978 33.9416 129.142 34.1765C129.305 34.4123 129.386 34.7867 129.386 35.2962C129.386 35.9425 129.266 36.3909 129.024 36.6404C128.88 36.785 128.702 36.8874 128.489 36.9537C128.275 37.0208 127.954 37.0699 127.529 37.1009C127.163 37.1284 126.702 37.1422 126.144 37.1422H121.76V37.1482ZM110.945 30.6403H111.829V33.8417C111.829 34.7841 111.84 35.3547 111.86 35.5457C111.885 35.7953 111.958 35.9726 112.076 36.0836C112.195 36.1946 112.394 36.2695 112.67 36.3022C113.129 36.3556 113.79 36.3831 114.651 36.3831C115.831 36.3831 116.647 36.347 117.091 36.2773C117.356 36.2359 117.542 36.1585 117.651 36.0397C117.758 35.9201 117.82 35.7265 117.837 35.4545C117.854 35.211 117.865 34.6731 117.871 33.8417V30.6403H118.752V33.8417C118.746 34.7092 118.729 35.3074 118.704 35.6378C118.645 36.2032 118.434 36.5965 118.068 36.8177C117.843 36.9511 117.567 37.0372 117.246 37.0699C116.922 37.106 116.126 37.137 114.86 37.1671C113.745 37.1508 113.078 37.137 112.859 37.1258C112.639 37.1146 112.397 37.0811 112.138 37.0286C111.702 36.9348 111.381 36.6964 111.179 36.3057C111.08 36.1137 111.021 35.8865 110.996 35.6206C110.97 35.3547 110.954 34.7617 110.945 33.8417V30.6403ZM101.841 33.9381H105.14C105.944 33.9355 106.448 33.9218 106.642 33.8994C106.839 33.8779 107.005 33.8108 107.14 33.7032C107.239 33.6197 107.309 33.5035 107.349 33.3564C107.388 33.21 107.408 32.982 107.408 32.6799C107.408 32.3477 107.391 32.1067 107.357 31.9656C107.323 31.8236 107.256 31.716 107.157 31.6386C107.028 31.5413 106.865 31.4828 106.67 31.4578C106.476 31.4329 105.964 31.414 105.14 31.3967H101.841V33.9381ZM100.961 37.1508V30.6403H105.142C106.237 30.6626 106.901 30.6876 107.126 30.7177C107.337 30.7487 107.529 30.821 107.703 30.9398C107.881 31.0594 108.01 31.2083 108.097 31.3864C108.238 31.6713 108.311 32.0956 108.311 32.655C108.311 33.093 108.275 33.4398 108.199 33.692C108.123 33.9441 107.999 34.1438 107.824 34.2901C107.647 34.4399 107.464 34.5397 107.27 34.5922C107.079 34.6455 106.78 34.6757 106.378 34.6894C106.231 34.692 105.821 34.6955 105.142 34.7006H101.844V37.1508H100.961ZM86.7322 33.9381H90.0303C90.8352 33.9355 91.3389 33.9218 91.5331 33.8994C91.7301 33.8779 91.8961 33.8108 92.0312 33.7032C92.1297 33.6197 92.2 33.5035 92.2394 33.3564C92.2761 33.21 92.2985 32.982 92.2985 32.6799C92.2985 32.3477 92.2817 32.1067 92.2479 31.9656C92.2141 31.8236 92.1466 31.716 92.0481 31.6386C91.9186 31.5413 91.7554 31.4828 91.5612 31.4578C91.3671 31.4329 90.8549 31.414 90.0303 31.3967H86.7322V33.9381ZM85.8513 37.1508V30.6403H90.0303C91.1279 30.6626 91.7892 30.6876 92.0143 30.7177C92.2226 30.7487 92.4168 30.821 92.5913 30.9398C92.7685 31.0594 92.898 31.2083 92.9852 31.3864C93.1259 31.6713 93.1991 32.0956 93.1991 32.655C93.1991 33.093 93.1597 33.4398 93.0865 33.692C93.0105 33.9441 92.8867 34.1438 92.7122 34.2901C92.5349 34.4399 92.352 34.5397 92.1578 34.5922C91.9664 34.6455 91.6682 34.6757 91.2658 34.6894C91.1194 34.692 90.7085 34.6955 90.0303 34.7006H86.7322V37.1508H85.8513ZM75.0364 30.6403H75.9173V33.8417C75.9173 34.7841 75.9286 35.3547 75.9482 35.5457C75.9736 35.7953 76.0467 35.9726 76.165 36.0836C76.2832 36.1946 76.483 36.2695 76.7587 36.3022C77.2174 36.3556 77.8788 36.3831 78.7399 36.3831C79.9219 36.3831 80.7352 36.347 81.1798 36.2773C81.4443 36.2359 81.6301 36.1585 81.7398 36.0397C81.8467 35.9201 81.9087 35.7265 81.9256 35.4545C81.9424 35.211 81.9537 34.6731 81.9593 33.8417V30.6403H82.8402V33.8417C82.8346 34.7092 82.8176 35.3074 82.7923 35.6378C82.7332 36.2032 82.5222 36.5965 82.1564 36.8177C81.9312 36.9511 81.6554 37.0372 81.3346 37.0699C81.011 37.106 80.2145 37.137 78.9481 37.1671C77.8338 37.1508 77.1668 37.137 76.9501 37.1258C76.7306 37.1146 76.4885 37.0811 76.2297 37.0286C75.7935 36.9348 75.4727 36.6964 75.27 36.3057C75.1715 36.1137 75.1125 35.8865 75.0871 35.6206C75.0618 35.3547 75.0449 34.7617 75.0364 33.8417V30.6403ZM67.7225 31.4114C66.7994 31.4114 66.1241 31.4467 65.6906 31.5189C65.4402 31.5603 65.2573 31.63 65.1447 31.7298C65.035 31.8296 64.9562 31.9931 64.9111 32.2178C64.838 32.5801 64.8014 33.1068 64.8014 33.8056C64.8014 34.5233 64.8211 35.044 64.8633 35.3745C64.9027 35.7015 64.9758 35.9227 65.0828 36.0337C65.1672 36.1249 65.2882 36.1921 65.443 36.2334C65.6006 36.2747 65.8511 36.3057 66.1915 36.3306C66.7572 36.3693 67.4129 36.3883 68.1587 36.3883C69.2224 36.3883 69.9963 36.347 70.4804 36.2609C70.8602 36.1972 71.0854 35.9752 71.1558 35.5982C71.2289 35.1937 71.2655 34.6395 71.2655 33.9441C71.2655 33.093 71.2317 32.4889 71.167 32.1429C71.1023 31.7849 70.8547 31.5749 70.4184 31.5078C70.1624 31.469 69.8781 31.4467 69.5573 31.4363C69.2449 31.4191 68.6315 31.414 67.7225 31.4114ZM68.2262 30.6291C69.3547 30.6291 70.1483 30.6652 70.6126 30.7375C71.0742 30.8098 71.4118 30.9484 71.6258 31.1532C71.7608 31.2831 71.8621 31.4389 71.9297 31.6162C71.9972 31.7935 72.0506 32.0456 72.09 32.3701C72.1379 32.7772 72.1633 33.2952 72.1633 33.9218C72.1633 34.7204 72.1267 35.3246 72.0506 35.7368C71.9747 36.1473 71.8453 36.4468 71.6567 36.6379C71.4625 36.8401 71.1445 36.9787 70.6999 37.0535C70.2581 37.1284 69.532 37.1645 68.5217 37.1645C68.0264 37.1645 67.4748 37.1559 66.8697 37.1396C66.2648 37.1258 65.8707 37.1095 65.6794 37.0923C65.3502 37.0621 65.0913 37.0062 64.9027 36.9373C64.7113 36.8651 64.5425 36.7489 64.3962 36.594C64.1991 36.3917 64.0669 36.106 64.0022 35.7368C63.9346 35.3685 63.9037 34.748 63.9037 33.8719C63.9037 32.8383 63.9768 32.1042 64.1204 31.6713C64.2948 31.1584 64.6916 30.8537 65.3136 30.7625C65.882 30.6764 66.8529 30.6325 68.2262 30.6291ZM54.5156 33.8891H57.7491C58.6074 33.8891 59.159 33.8779 59.401 33.8529C59.6431 33.828 59.84 33.7669 59.992 33.6722C60.2171 33.5259 60.3296 33.1653 60.3296 32.5913C60.3296 32.0981 60.2228 31.7737 60.0144 31.63C59.8794 31.5327 59.6683 31.4716 59.3784 31.4415C59.0887 31.414 58.5455 31.4002 57.7491 31.4002H54.5156V33.8891ZM53.6348 37.1482V30.6403H57.7519C58.8692 30.654 59.5839 30.679 59.8935 30.7212C60.4394 30.79 60.8166 31.0344 61.0248 31.4467C61.1627 31.7238 61.233 32.1093 61.233 32.6085C61.233 32.9854 61.2105 33.2703 61.1711 33.4648C61.1289 33.6584 61.0529 33.8168 60.946 33.9355C60.7772 34.124 60.507 34.2574 60.1412 34.3323C60.4253 34.3796 60.6505 34.4872 60.8194 34.6567C60.946 34.7893 61.0248 34.9476 61.0613 35.1301C61.0952 35.316 61.1148 35.6791 61.1148 36.2248V37.1482H60.234V36.5243C60.234 35.995 60.2228 35.6292 60.2002 35.4244C60.1355 35.0113 59.8991 34.7703 59.4911 34.7006C59.3306 34.6782 59.1843 34.6645 59.0576 34.6593C58.931 34.6533 58.4977 34.6507 57.7547 34.6481H54.5212V37.1448H53.6348V37.1482ZM46.3939 33.8495H50.7278C50.7221 34.8555 50.6884 35.507 50.6264 35.8091C50.5589 36.1421 50.452 36.3943 50.3056 36.5604C50.1593 36.7291 49.9398 36.8625 49.6387 36.9597C49.2334 37.0897 48.3188 37.1534 46.8949 37.1534C45.5553 37.1534 44.6098 37.1121 44.0554 37.026C43.5713 36.9485 43.2224 36.7429 43.0057 36.4055C42.7637 36.0285 42.6427 35.1912 42.6427 33.8917C42.6427 32.9906 42.7074 32.2892 42.8397 31.7823C42.9663 31.3055 43.2646 30.9897 43.7374 30.8399C44.2102 30.6902 45.1388 30.6153 46.5206 30.6153C46.9737 30.6153 47.4858 30.6265 48.0515 30.6515C48.6171 30.6764 49.0055 30.7014 49.2109 30.7289C49.633 30.7874 49.9764 30.9484 50.2409 31.2117C50.3985 31.3752 50.5111 31.5603 50.5729 31.7737C50.6377 31.9871 50.6743 32.2892 50.6799 32.6747H49.7709C49.7597 32.1678 49.6893 31.852 49.5571 31.7212C49.4698 31.6412 49.346 31.5775 49.1884 31.5413C49.0308 31.5026 48.7775 31.4716 48.4342 31.4441C47.9614 31.414 47.3733 31.3967 46.6697 31.3967C45.7439 31.3967 45.0797 31.4217 44.6745 31.469C44.2664 31.5164 43.9991 31.6024 43.8668 31.7272C43.7458 31.8408 43.6614 32.0482 43.6136 32.3426C43.5657 32.6386 43.5432 33.1154 43.5432 33.7669C43.5432 34.7419 43.5826 35.3822 43.6642 35.6843C43.7149 35.8676 43.7965 36.0001 43.9062 36.0862C44.016 36.1723 44.1792 36.2334 44.3987 36.2695C44.8293 36.3358 45.7748 36.3693 47.2326 36.3693C48.0374 36.3693 48.634 36.3358 49.0167 36.2721C49.3657 36.2136 49.5852 36.0922 49.6809 35.9003C49.7737 35.7093 49.8272 35.2772 49.8385 34.6034H46.3939V33.8495Z" fill="white"/>
<path fill-rule="evenodd" clip-rule="evenodd" d="M27.5167 37.1757H37.0019V27.6405C34.887 31.8118 31.7598 35.1832 27.5167 37.1757ZM37.0019 27.637V27.6422C37.0035 27.6405 37.0035 27.6388 37.0035 27.637H37.0019ZM18.4 0.00345236C8.23648 0.00345236 -8.39233e-05 8.25111 -8.39233e-05 18.4224C-8.39233e-05 28.5937 8.23819 36.8397 18.4 36.8397C27.2477 36.8397 32.2368 31.4394 37.1756 24.7982L36.9516 9.60767L25.8427 24.2673C24.0484 26.5563 21.3051 27.8922 18.3983 27.8922C13.1736 27.8922 8.93737 23.6537 8.93566 18.4224C8.93566 13.1911 13.1702 8.95093 18.3966 8.95093C23.6213 8.95093 27.8594 13.1894 27.8594 18.4207V18.4569L34.3378 9.20774C31.0534 3.50935 24.98 0 18.4086 0C18.4069 0.00344692 18.4035 0.00345236 18.4 0.00345236Z" fill="url(#paint0_linear_41_2)"/>
<defs>
<linearGradient id="paint0_linear_41_2" x1="20.2557" y1="38.4214" x2="20.2557" y2="0.0927352" gradientUnits="userSpaceOnUse">
<stop stop-color="#9D0A6A"/>
<stop offset="1" stop-color="#E0004B"/>
</linearGradient>
</defs>
</svg>
